<svg xmlns="http://www.w3.org/2000/svg" width="22.2" height="22.2" viewBox="0 0 22.2 22.2">
  <path id="_001-facebook" data-name="001-facebook" d="M3.223,22H10.4V14.18H7.82V11.6H10.4V8.379a3.226,3.226,0,0,1,3.223-3.223h3.223V7.734H14.266a1.29,1.29,0,0,0-1.289,1.289V11.6h3.751L16.3,14.18H12.977V22h5.8A3.226,3.226,0,0,0,22,18.777V3.223A3.226,3.226,0,0,0,18.777,0H3.223A3.226,3.226,0,0,0,0,3.223V18.777A3.226,3.226,0,0,0,3.223,22ZM1.289,3.223A1.936,1.936,0,0,1,3.223,1.289H18.777a1.936,1.936,0,0,1,1.934,1.934V18.777a1.936,1.936,0,0,1-1.934,1.934H14.266V15.469H17.39l.859-5.156H14.266V9.023h3.867V3.867H13.621A4.517,4.517,0,0,0,9.109,8.379v1.934H6.531v5.156H9.109v5.242H3.223a1.936,1.936,0,0,1-1.934-1.934Zm0,0" transform="translate(0.1 0.1)" stroke="#fff" stroke-width="0.2"/>
</svg>
