<svg xmlns="http://www.w3.org/2000/svg" width="22.2" height="22.2" viewBox="0 0 22.2 22.2">
  <g id="_002-instagram" data-name="002-instagram" transform="translate(0.1 0.1)">
    <path id="Caminho_41" data-name="Caminho 41" d="M3.223,22H18.777A3.226,3.226,0,0,0,22,18.777V3.223A3.226,3.226,0,0,0,18.777,0H3.223A3.226,3.226,0,0,0,0,3.223V18.777A3.226,3.226,0,0,0,3.223,22ZM1.289,3.223A1.936,1.936,0,0,1,3.223,1.289H18.777a1.936,1.936,0,0,1,1.934,1.934V18.777a1.936,1.936,0,0,1-1.934,1.934H3.223a1.936,1.936,0,0,1-1.934-1.934Zm0,0" stroke="#fff" stroke-width="0.2"/>
    <path id="Caminho_42" data-name="Caminho 42" d="M126.444,131.888A5.444,5.444,0,1,0,121,126.444,5.45,5.45,0,0,0,126.444,131.888Zm0-9.678a4.234,4.234,0,1,1-4.234,4.234A4.239,4.239,0,0,1,126.444,122.21Zm0,0" transform="translate(-115.444 -115.444)" stroke="#fff" stroke-width="0.2"/>
    <path id="Caminho_43" data-name="Caminho 43" d="M363.252,65.5A2.252,2.252,0,1,0,361,63.252,2.255,2.255,0,0,0,363.252,65.5Zm0-3a.751.751,0,1,1-.751.751A.752.752,0,0,1,363.252,62.5Zm0,0" transform="translate(-346.558 -57.947)" stroke="#fff" stroke-width="0.2"/>
  </g>
</svg>
