<svg xmlns="http://www.w3.org/2000/svg" width="22.454" height="18.375" viewBox="0 0 22.454 18.375">
  <path id="_003-twitter" data-name="003-twitter" d="M22,2.405c-1.384.064-1.354.059-1.51.072l.82-2.341s-2.558.941-3.207,1.109A5.133,5.133,0,0,0,12.057.76a4.187,4.187,0,0,0-2.012,4.305A11.167,11.167,0,0,1,2.811.992L2.2.263,1.75,1.1a5.033,5.033,0,0,0-.536,3.388,4.868,4.868,0,0,0,.472,1.323l-.521-.2-.062.87A4.642,4.642,0,0,0,1.89,9.234,4.906,4.906,0,0,0,2.5,9.99l-.269-.041.328,1a4.846,4.846,0,0,0,2.491,2.886c-1.162.493-2.1.808-3.643,1.315L0,15.611l1.3.713a13.682,13.682,0,0,0,3.988,1.452c3.857.6,8.2.112,11.123-2.521,2.462-2.218,3.27-5.372,3.1-8.655A2.051,2.051,0,0,1,19.9,5.263C20.447,4.534,22,2.41,22,2.405ZM18.87,4.491a3.34,3.34,0,0,0-.639,2.173c.169,3.311-.732,5.88-2.678,7.632C13.28,16.345,9.612,17.149,5.491,16.5a9.978,9.978,0,0,1-2.156-.641,34.184,34.184,0,0,0,3.9-1.6l2.251-1.066-2.486-.159a3.516,3.516,0,0,1-2.792-1.59,4.459,4.459,0,0,0,.946-.158l2.371-.66-2.391-.585A3.561,3.561,0,0,1,2.966,8.526a3.647,3.647,0,0,1-.471-1.04,5.968,5.968,0,0,0,.97.155l2.213.219L3.924,6.492A3.69,3.69,0,0,1,2.526,2.6a12.825,12.825,0,0,0,9.037,3.89A7.632,7.632,0,0,0,11.431,5.4a2.96,2.96,0,0,1,1.3-3.543,3.85,3.85,0,0,1,4.542.376,1.153,1.153,0,0,0,1.058.283,8.909,8.909,0,0,0,.872-.265l-.556,1.587h.71Zm0,0" transform="translate(0.25 0.239)" stroke="#fff" stroke-width="0.2"/>
</svg>
