<svg id="Grupo_319" data-name="Grupo 319" xmlns="http://www.w3.org/2000/svg" xmlns:xlink="http://www.w3.org/1999/xlink" width="36.849" height="32.655" viewBox="0 0 36.849 32.655">
  <defs>
    <clipPath id="clip-path">
      <path id="vectorMask" d="M2237.742,1561.458v32.5h32.377v-10.727a1.241,1.241,0,0,0,.192-.716,1.11,1.11,0,0,0-.192-.711v-20.344Z" transform="translate(-2237.742 -1561.458)" fill="none" stroke="#000" stroke-width="1"/>
    </clipPath>
  </defs>
  <g id="Grupo_66" data-name="Grupo 66" transform="translate(4.277)" clip-path="url(#clip-path)">
    <rect id="Ret창ngulo_98" data-name="Ret창ngulo 98" width="32.74" height="32.643" transform="translate(-0.072 -0.141)" fill="none" stroke="#000" stroke-width="1"/>
  </g>
  <path id="Uni찾o_2" data-name="Uni찾o 2" d="M19.732,11.871H17.283V10.437a3.064,3.064,0,0,1-1.186.185h-.375v1.248H12.753l-.727-.827-.774.827H6.435V6.554h4.907l.7.818.76-.818h3.285a3.808,3.808,0,0,1,.679.056,1.18,1.18,0,0,1,.6.257V6.554h2.929a3.147,3.147,0,0,1,.589.06,1.675,1.675,0,0,1,.642.25V6.554h4.452v.313a1.768,1.768,0,0,1,1.077-.313h2.5v.313a1.923,1.923,0,0,1,1.142-.313h1.689v.76H30.569c-.63,0-1.3.3-1.3,1.133,0,1.126.926,1.158,1.756,1.172h.157A.463.463,0,0,1,31.5,9.7a.316.316,0,0,1,.116.253.332.332,0,0,1-.109.246.515.515,0,0,1-.371.1h-1.76v.82h1.756A2.074,2.074,0,0,0,31.883,11a1.025,1.025,0,0,0,.484-.369v.99a3.056,3.056,0,0,1-1.336.247H28.676v-.34a1.477,1.477,0,0,1-.542.255,2.7,2.7,0,0,1-.695.088H20.012V10.641c0-.148,0-.158-.167-.158h-.113v1.391Zm6.083-1.566v.82H27.59a1.637,1.637,0,0,0,1.058-.3,1.113,1.113,0,0,0,.371-.911,1.053,1.053,0,0,0-.273-.815.92.92,0,0,0-.413-.231,2.578,2.578,0,0,0-.627-.063l-.489-.014a1,1,0,0,1-.353-.047.286.286,0,0,1-.2-.283A.3.3,0,0,1,26.8,8.19a.638.638,0,0,1,.366-.068h1.67V7.314H27.008c-.959,0-1.3.586-1.3,1.133a.98.98,0,0,0,.57,1,3.228,3.228,0,0,0,1.184.171h.162a.463.463,0,0,1,.322.085.314.314,0,0,1,.113.253.327.327,0,0,1-.107.246.524.524,0,0,1-.373.1ZM12.028,9.862l1.121,1.263h1.768V9.842h1.138a2.035,2.035,0,0,0,1.092-.231.978.978,0,0,0,.356-.39,1.409,1.409,0,0,0,.134-.653,1.388,1.388,0,0,0-.136-.639.985.985,0,0,0-.359-.382,1.941,1.941,0,0,0-1.036-.231H13.2L12.039,8.558,10.921,7.314H7.262v3.809h3.6L12.021,9.86Zm10.208,1.261h3.038V10.33H23.142V9.566h2.084V8.792H23.142V8.1h2.131V7.314H22.235Zm-4.168,0h.913V9.733l0,0h.976a.877.877,0,0,1,.667.169,1.027,1.027,0,0,1,.149.679v.542h.91v-.752a1.085,1.085,0,0,0-.15-.7.939.939,0,0,0-.443-.319.989.989,0,0,0,.408-.318,1.1,1.1,0,0,0,.232-.695,1,1,0,0,0-.125-.524.927.927,0,0,0-.338-.324,2.182,2.182,0,0,0-1.1-.178h-2.1Zm-5.447-1.9,1.391-1.507v3.063ZM8.166,10.33V9.566h2V8.792h-2V8.1h2.28l1,1.107-1.039,1.12,0,.006ZM32.355,9.175a.437.437,0,0,0-.053-.063.911.911,0,0,0-.41-.231,2.633,2.633,0,0,0-.627-.079l-.5-.006a.993.993,0,0,1-.352-.047.287.287,0,0,1-.2-.283.3.3,0,0,1,.135-.275.643.643,0,0,1,.365-.068h1.673V9.212ZM14.917,9.068V8.1h1.189a.654.654,0,0,1,.4.109.424.424,0,0,1,.155.359c0,.318-.208.5-.57.5Zm5.169-.113v0H18.978V8.1H20.1a.875.875,0,0,1,.428.074.359.359,0,0,1,.188.341.407.407,0,0,1-.188.355.894.894,0,0,1-.38.086ZM6.375,5.319,6.1,4.668v.649H3.039l-.35-.846H1.906l-.353.843H0V4.567H1l.005,0,.352-.85H3.246l.344.85H5.459V1.6L6.771,4.567h.8l.012,0,1.3-2.953,0,2.956h.927l.01,0V.762H9.814l-1.5,0,0,0-1.1,2.577L6.026.758H4.538v0l0,3.59L2.993.758l0,0H1.635L1.1,2.016,0,4.564V2.534L1.1,0H3.477l.308.628V0h2.78l.608,1.369L7.765,0H16.6c.039,0,.079,0,.119,0a1.492,1.492,0,0,1,.912.312V0h2.412V.312A3.1,3.1,0,0,1,21.395,0c.057,0,.113,0,.169,0h3.5l.325.628V0h2.595l.349.628V0h2.525v5.31H28.315l-.482-.8v.8H24.647l-.35-.846h-.786l-.343.846H21.425a3.127,3.127,0,0,1-1.382-.323v.322H16.106V4.108c0-.171-.039-.178-.134-.178h-.139V5.318h-7.6V4.661l-.276.658H6.375ZM20.79.867a1.359,1.359,0,0,0-.568.338,1.632,1.632,0,0,0-.392.7,2.818,2.818,0,0,0-.1.8,1.926,1.926,0,0,0,.491,1.458,1.966,1.966,0,0,0,1.212.421l.1,0h1.068l.331-.866h1.9l.352.852h1.853V1.712l1.731,2.855h1.291V.758h-.927V3.41L27.527.758h-1.39v3.6L24.6.758H23.236L21.955,3.75h-.408a.754.754,0,0,1-.077,0,.888.888,0,0,1-.555-.2,1.3,1.3,0,0,1-.25-.895A1.268,1.268,0,0,1,20.92,1.8a.876.876,0,0,1,.6-.237.863.863,0,0,1,.1.005h.859V.758h-.922A2.7,2.7,0,0,0,20.79.867ZM14.172,4.573h.912V4.567H15.1V3.185h-.015l.015,0,.961,0,.013,0a2.175,2.175,0,0,1,.34.021.894.894,0,0,1,.31.144l.006.01a1.14,1.14,0,0,1,.149.582c0,.025,0,.05-.007.075v.037c0,.012,0,.023,0,.035v.475h0l.927,0V3.816a1.084,1.084,0,0,0-.156-.7A1.066,1.066,0,0,0,17.2,2.8a1.072,1.072,0,0,0,.644-1.013.991.991,0,0,0-.018-.212.914.914,0,0,0-.045-.159,1,1,0,0,0-.067-.145.926.926,0,0,0-.334-.336,2.17,2.17,0,0,0-.9-.194c-.067,0-.135,0-.2.009H14.192V.767h-.02Zm4.185-.006h.927V.758h-.927ZM10.5.762v3.8l3.042,0v-.79H11.418V3.039H13.5V2.255h-.012V2.24H11.418V1.559h2.125v-.8l-3.04,0v0h0ZM1.677,2.924,2.3,1.407l.625,1.517Zm22.844,0H23.269l.624-1.515.629,1.514h0ZM16.191,2.4H15.086V1.553H16.2a.96.96,0,0,1,.436.069.346.346,0,0,1,.187.334.408.408,0,0,1-.184.369v0a.884.884,0,0,1-.374.083Q16.23,2.4,16.191,2.4Z" transform="translate(4.276 11.139)"/>
  <path id="Caminho_80" data-name="Caminho 80" d="M1.537,3.068A1.533,1.533,0,0,1,.457.448a1.552,1.552,0,0,1,2.182,0,1.535,1.535,0,0,1-1.1,2.62Zm0-2.836A1.3,1.3,0,0,0,.61.617a1.311,1.311,0,0,0-.371.927,1.309,1.309,0,1,0,2.616,0A1.314,1.314,0,0,0,2.484.617,1.3,1.3,0,0,0,1.537.232Zm-.28,2.009H1V.8h.667A.609.609,0,0,1,2,.881a.357.357,0,0,1,.155.32A.371.371,0,0,1,2,1.525c.058.035.116.1.127.264l.012.25c0,.072,0,.083.07.116v.086H1.921a1.888,1.888,0,0,1-.042-.387c0-.114-.016-.209-.209-.209H1.252v.588Zm0-1.216v.4H1.65c.232,0,.25-.111.25-.206,0-.171-.116-.195-.218-.195Z" transform="translate(-0.005 29.587)"/>
</svg>
