<svg id="Grupo_321" data-name="Grupo 321" xmlns="http://www.w3.org/2000/svg" width="45.353" height="20.227" viewBox="0 0 45.353 20.227">
  <rect id="Retângulo_1216" data-name="Retângulo 1216" width="2.159" height="8.935" transform="translate(3.12 0)"/>
  <rect id="Retângulo_1217" data-name="Retângulo 1217" width="0.667" height="8.935" transform="translate(5.962 0)"/>
  <rect id="Retângulo_1218" data-name="Retângulo 1218" width="1.199" height="8.935" transform="translate(7.212 0)"/>
  <rect id="Retângulo_1219" data-name="Retângulo 1219" width="0.671" height="8.935" transform="translate(9.566 0)"/>
  <rect id="Retângulo_1220" data-name="Retângulo 1220" width="0.516" height="8.935" transform="translate(10.527 0)"/>
  <rect id="Retângulo_1221" data-name="Retângulo 1221" width="0.669" height="20.227" transform="translate(1.476 0)"/>
  <rect id="Retângulo_1222" data-name="Retângulo 1222" width="1.198" height="20.227" transform="translate(0 0)"/>
  <rect id="Retângulo_1223" data-name="Retângulo 1223" width="2.163" height="8.935" transform="translate(14.619 0)"/>
  <rect id="Retângulo_1224" data-name="Retângulo 1224" width="0.671" height="8.935" transform="translate(17.461 0)"/>
  <rect id="Retângulo_1225" data-name="Retângulo 1225" width="1.199" height="8.935" transform="translate(18.715 0)"/>
  <rect id="Retângulo_1226" data-name="Retângulo 1226" width="0.667" height="8.935" transform="translate(21.069 0)"/>
  <rect id="Retângulo_1227" data-name="Retângulo 1227" width="0.516" height="8.935" transform="translate(22.03 0)"/>
  <rect id="Retângulo_1228" data-name="Retângulo 1228" width="0.667" height="8.935" transform="translate(12.98 0)"/>
  <rect id="Retângulo_1229" data-name="Retângulo 1229" width="1.199" height="8.935" transform="translate(11.503 0)"/>
  <rect id="Retângulo_1230" data-name="Retângulo 1230" width="1.195" height="8.935" transform="translate(23.395 0)"/>
  <rect id="Retângulo_1231" data-name="Retângulo 1231" width="0.671" height="8.935" transform="translate(25.745 0)"/>
  <rect id="Retângulo_1232" data-name="Retângulo 1232" width="0.512" height="8.935" transform="translate(26.709 0)"/>
  <rect id="Retângulo_1233" data-name="Retângulo 1233" width="0.671" height="8.935" transform="translate(29.158 0)"/>
  <rect id="Retângulo_1234" data-name="Retângulo 1234" width="1.199" height="8.935" transform="translate(27.682 0)"/>
  <rect id="Retângulo_1235" data-name="Retângulo 1235" width="0.671" height="8.935" transform="translate(30.718 0)"/>
  <rect id="Retângulo_1236" data-name="Retângulo 1236" width="0.516" height="8.935" transform="translate(31.679 0)"/>
  <rect id="Retângulo_1237" data-name="Retângulo 1237" width="0.671" height="8.935" transform="translate(34.128 0)"/>
  <rect id="Retângulo_1238" data-name="Retângulo 1238" width="1.199" height="8.935" transform="translate(32.651 0)"/>
  <rect id="Retângulo_1239" data-name="Retângulo 1239" width="2.159" height="8.935" transform="translate(35.382 0)"/>
  <rect id="Retângulo_1240" data-name="Retângulo 1240" width="0.667" height="8.935" transform="translate(38.224 0)"/>
  <rect id="Retângulo_1241" data-name="Retângulo 1241" width="1.199" height="8.935" transform="translate(39.475 0)"/>
  <rect id="Retângulo_1242" data-name="Retângulo 1242" width="0.671" height="8.935" transform="translate(41.828 0)"/>
  <rect id="Retângulo_1243" data-name="Retângulo 1243" width="0.516" height="8.935" transform="translate(42.789 0)"/>
  <rect id="Retângulo_1244" data-name="Retângulo 1244" width="1.198" height="20.227" transform="translate(44.155 0)"/>
  <path id="Caminho_1532" data-name="Caminho 1532" d="M276.376,69.155a2.558,2.558,0,0,0-.234-.263,2.645,2.645,0,0,0-.672-.463,2.836,2.836,0,0,0-.523-.2,2.812,2.812,0,0,0,.523-.332,2.315,2.315,0,0,0,.552-.609c.043-.072.083-.143.12-.22a2.308,2.308,0,0,0,.234-1.015,2.436,2.436,0,0,0-.234-1.044,3.249,3.249,0,0,0-.166-.309,2.433,2.433,0,0,0-.506-.583,2.3,2.3,0,0,0-.606-.377,3.257,3.257,0,0,0-.549-.18,5.8,5.8,0,0,0-1.2-.129h-3.989V73.685h3.989a7.409,7.409,0,0,0,1.2-.094,3.674,3.674,0,0,0,.386-.08,3.255,3.255,0,0,0,.769-.289,2.106,2.106,0,0,0,.349-.214,2.848,2.848,0,0,0,.323-.3,2.8,2.8,0,0,0,.289-.4,2.863,2.863,0,0,0,.143-.26,2.98,2.98,0,0,0,.306-1.341,2.455,2.455,0,0,0-.449-1.473A.962.962,0,0,0,276.376,69.155Zm-5.888-4.524h2.053c.209,0,.4,0,.575.011a4.15,4.15,0,0,1,.984.132,1.024,1.024,0,0,1,.214.089,1.215,1.215,0,0,1,.486.446,1.652,1.652,0,0,1,.246.9,1.488,1.488,0,0,1-.263.9,1.261,1.261,0,0,1-.469.389,1.811,1.811,0,0,1-.312.123,3.592,3.592,0,0,1-.886.112c-.126.006-.263.009-.409.009h-2.219Zm4.981,6.16a1.747,1.747,0,0,1-.2.786,1.458,1.458,0,0,1-.52.575,1.746,1.746,0,0,1-.437.192,2.727,2.727,0,0,1-.343.089,5.97,5.97,0,0,1-.855.051h-2.628v-3.54h2.374c.089,0,.172,0,.255,0a4.661,4.661,0,0,1,1.2.152l.049.014a1.541,1.541,0,0,1,.815.6,1.649,1.649,0,0,1,.292.858Z" transform="translate(-265.904 -53.847)"/>
  <path id="Caminho_1533" data-name="Caminho 1533" d="M278.259,65.365a.626.626,0,0,0-.063-.06,2.767,2.767,0,0,0-.672-.506,3.227,3.227,0,0,0-.678-.292,3.938,3.938,0,0,0-1.092-.146,3.825,3.825,0,0,0-1.072.146,3.148,3.148,0,0,0-.972.455,2.376,2.376,0,0,0-.294.226,2.813,2.813,0,0,0-.372.389,2.754,2.754,0,0,0-.277.415,5.28,5.28,0,0,0,0,4.475,2.249,2.249,0,0,0,.277.423,2.377,2.377,0,0,0,.192.223,2.905,2.905,0,0,0,.475.406,3.093,3.093,0,0,0,.972.455,3.991,3.991,0,0,0,1.072.134,3.818,3.818,0,0,0,1.092-.154,3.512,3.512,0,0,0,.678-.286l.023-.011a3.091,3.091,0,0,0,.649-.469,2.863,2.863,0,0,0,.583-.766l.023-.037a4.915,4.915,0,0,0,.429-2.251,4.223,4.223,0,0,0-.452-2.042A2.906,2.906,0,0,0,278.259,65.365Zm-.735,4.713a1.5,1.5,0,0,1-.206.289,2.1,2.1,0,0,1-.472.409,2.068,2.068,0,0,1-2.665-.406,2.29,2.29,0,0,1-.472-.9V67.012a2.271,2.271,0,0,1,.472-.9,1.967,1.967,0,0,1,.5-.42,2.019,2.019,0,0,1,1.072-.286,1.967,1.967,0,0,1,1.092.309,2.116,2.116,0,0,1,.469.4,1.961,1.961,0,0,1,.209.295,3.391,3.391,0,0,1,.418,1.79A3.581,3.581,0,0,1,277.524,70.077Z" transform="translate(-260.063 -52.115)"/>
  <path id="Caminho_1534" data-name="Caminho 1534" d="M275.662,63.43h-.452V73.686h1.262V63.43h-.81Z" transform="translate(-254.593 -53.848)"/>
  <path id="Caminho_1535" data-name="Caminho 1535" d="M282.076,65.373c-.049-.051-.1-.1-.143-.14a2.109,2.109,0,0,0-.277-.237,2.953,2.953,0,0,0-1.2-.549,3.3,3.3,0,0,0-.46-.072,3.38,3.38,0,0,0-.343-.014c-.057,0-.112,0-.169,0-.1.006-.2.011-.292.02a3.836,3.836,0,0,0-.672.143,3.077,3.077,0,0,0-1.155.655,3,3,0,0,0-.215.212,4.1,4.1,0,0,0-.961,2.905,3.919,3.919,0,0,0,.952,2.811,2.46,2.46,0,0,0,.223.206,3.04,3.04,0,0,0,1.155.632,3.493,3.493,0,0,0,.672.129,2.348,2.348,0,0,0,.292.026c.077.006.154.006.234.006s.186,0,.277-.006a3.848,3.848,0,0,0,.46-.051,3.113,3.113,0,0,0,1.2-.44,1.955,1.955,0,0,0,.186-.129c.031-.023.06-.049.091-.074a2.781,2.781,0,0,0,.669-.786,3.532,3.532,0,0,0,.375-.9l-.375-.051-.669-.089-.26-.034-.017.051a2.4,2.4,0,0,1-.761,1.118,1.6,1.6,0,0,1-.44.237,1.838,1.838,0,0,1-.46.112,1.784,1.784,0,0,1-.277.017,2.115,2.115,0,0,1-.234-.011,1.884,1.884,0,0,1-.292-.049,1.914,1.914,0,0,1-.672-.295,1.888,1.888,0,0,1-.349-.3,2.841,2.841,0,0,1-.695-1.873h5.536c.006-.146.008-.257.008-.332a4.592,4.592,0,0,0-.417-2.065A2.915,2.915,0,0,0,282.076,65.373Zm-.42,2.156h-4.109a2.319,2.319,0,0,1,.655-1.558,2.457,2.457,0,0,1,.317-.257,1.929,1.929,0,0,1,.672-.274,1.891,1.891,0,0,1,.292-.037,1.687,1.687,0,0,1,.171-.009,1.841,1.841,0,0,1,.34.029,1.545,1.545,0,0,1,.46.126,1.92,1.92,0,0,1,.758.572,2.265,2.265,0,0,1,.443,1.135Z" transform="translate(-252.774 -52.115)"/>
  <path id="Caminho_1536" data-name="Caminho 1536" d="M281.917,72.454a.952.952,0,0,1-.149.009l-.132,0a.746.746,0,0,1-.3-.089.543.543,0,0,1-.215-.246,2.163,2.163,0,0,1-.066-.695V67.078h1.261V66.1H281.06V63.509l-.621.372-.455.275-.183.112V66.1h-.932v.975h.932v4.281a4.589,4.589,0,0,0,.149,1.493l.034.06a1.126,1.126,0,0,0,.455.48l.043.029a2.127,2.127,0,0,0,1.061.217c.031,0,.063,0,.094,0,.089,0,.183-.009.28-.017.177-.02.372-.051.575-.091l-.172-1.115A3.483,3.483,0,0,1,281.917,72.454Z" transform="translate(-247.788 -53.7)"/>
  <path id="Caminho_1537" data-name="Caminho 1537" d="M286.336,65.365a3.1,3.1,0,0,0-.621-.5,3.146,3.146,0,0,0-1.2-.443,2.965,2.965,0,0,0-.583-.057c-.031,0-.066,0-.1,0a3.633,3.633,0,0,0-.563.04,3.4,3.4,0,0,0-.683.157,3.232,3.232,0,0,0-1.089.629,3.307,3.307,0,0,0-1.07,2.042,6.155,6.155,0,0,0-.08,1.007,6.028,6.028,0,0,0,.08.992,3.486,3.486,0,0,0,.881,1.884,3.058,3.058,0,0,0,1.278.8,2.978,2.978,0,0,0,.683.157,4.021,4.021,0,0,0,.563.037c.037,0,.069,0,.1,0a3.556,3.556,0,0,0,1.693-.449.454.454,0,0,0,.089-.054,2.989,2.989,0,0,0,1.155-1.207l.008-.011a4.914,4.914,0,0,0,.429-2.251,4.255,4.255,0,0,0-.437-2.013A2.872,2.872,0,0,0,286.336,65.365Zm-.621,4.492a1.946,1.946,0,0,1-.32.509,2.01,2.01,0,0,1-.878.6,2.046,2.046,0,0,1-.583.109c-.031,0-.066,0-.1,0a2.143,2.143,0,0,1-.563-.071,1.89,1.89,0,0,1-.683-.337,2.139,2.139,0,0,1-.326-.3,3.962,3.962,0,0,1,0-4.258,2.27,2.27,0,0,1,.326-.3,1.838,1.838,0,0,1,.683-.335,2.143,2.143,0,0,1,.563-.071c.037,0,.072,0,.1,0a2.056,2.056,0,0,1,1.781,1.212,3.62,3.62,0,0,1,.3,1.579A3.914,3.914,0,0,1,285.715,69.857Z" transform="translate(-245.043 -52.115)"/>
</svg>
