<svg xmlns="http://www.w3.org/2000/svg" width="21.507" height="21.559" viewBox="0 0 21.507 21.559">
  <path id="search001_-_E000" data-name="search001 - E000" d="M5.465-21.274a8.683,8.683,0,0,0-8.683-8.714,8.7,8.7,0,0,0-8.7,8.714,8.687,8.687,0,0,0,8.7,8.668,8.7,8.7,0,0,0,5.656-2.079L8.145-9.032l.841-.841L3.279-15.527A8.625,8.625,0,0,0,5.465-21.274ZM-.3-14.4a7.336,7.336,0,0,1-2.92.6,7.539,7.539,0,0,1-2.92-.581,7.452,7.452,0,0,1-2.385-1.605,7.557,7.557,0,0,1-1.605-2.369,7.39,7.39,0,0,1-.6-2.92,7.355,7.355,0,0,1,.6-2.935,7.518,7.518,0,0,1,1.605-2.4,7.557,7.557,0,0,1,2.369-1.605A7.672,7.672,0,0,1-3.218-28.8a7.464,7.464,0,0,1,2.935.6,7.308,7.308,0,0,1,2.369,1.605,7.518,7.518,0,0,1,1.605,2.4,7.52,7.52,0,0,1,.581,2.9,7.2,7.2,0,0,1-.581,2.9A7.107,7.107,0,0,1,2.1-16.016,7.318,7.318,0,0,1-.3-14.4Z" transform="translate(12.166 30.238)" stroke="#000" stroke-width="0.5"/>
</svg>
