<svg id="Grupo_318" data-name="Grupo 318" xmlns="http://www.w3.org/2000/svg" width="44.867" height="32.655" viewBox="0 0 44.867 32.655">
  <path id="Exclusão_1" data-name="Exclusão 1" d="M10.947,14.733H7.378A7.379,7.379,0,0,1,0,7.43a7.3,7.3,0,0,1,2.125-5.3A7.217,7.217,0,0,1,7.263,0l.165,0h3.463l.179,0a7.483,7.483,0,0,1,5.222,2.109,7.571,7.571,0,0,1,2.3,5.322,7.652,7.652,0,0,1-7.643,7.3ZM7.441.607A6.75,6.75,0,0,0,3.674,12.951,6.682,6.682,0,0,0,7.422,14.1h.042a6.656,6.656,0,0,0,2.611-.531A6.748,6.748,0,0,0,7.441.607ZM5.912,11.343h0a4.274,4.274,0,0,1,0-7.975v7.974Zm3.059,0h0V3.367a4.269,4.269,0,0,1,0,7.975Z" transform="translate(13.402 3.265)"/>
  <path id="Caminho_51" data-name="Caminho 51" d="M2.193,5.491H1.057c-.381,0-.747,0-1.054.013V5.287H.026A1.15,1.15,0,0,0,.535,5.17c.119-.08.175-.217.188-.478V.866A1.083,1.083,0,0,0,.667.489.4.4,0,0,0,.52.29.812.812,0,0,0,.067.217H0V0C.307.015.624.015.927.015L1.42,0h.866A3.765,3.765,0,0,1,3.637.234a2.9,2.9,0,0,1,.985.621,2.646,2.646,0,0,1,.608.877A2.618,2.618,0,0,1,5.436,2.75,2.784,2.784,0,0,1,4.86,4.408a2.585,2.585,0,0,1-.983.758,4.092,4.092,0,0,1-1.684.325ZM2.107.253c-.245,0-.392.013-.509.022l-.1.009v4.28c0,.6.414.675.816.675a2.483,2.483,0,0,0,1.072-.217,1.868,1.868,0,0,0,.7-.569,2.334,2.334,0,0,0,.377-.788,3.3,3.3,0,0,0,.113-.877A2.949,2.949,0,0,0,4.4,1.771a2.308,2.308,0,0,0-.491-.8A2.2,2.2,0,0,0,3.133.433,2.719,2.719,0,0,0,2.107.253Z" transform="translate(4.226 18.604)"/>
  <path id="Caminho_52" data-name="Caminho 52" d="M2928.29,1778.491v-.206h-.135c-.217,0-.393,0-.393-.26v-3.031l-.056-.11-.14.039c-.035.024-.474.176-.844.286v.128c.292.156.409.2.409.552v2.13c0,.26-.158.26-.377.26h-.152v.206c.292,0,.574-.015.866-.015s.561.015.827.015" transform="translate(-2916.666 -1754.396)"/>
  <path id="Caminho_53" data-name="Caminho 53" d="M2932.021,1753.838a.394.394,0,0,0,.385-.394.383.383,0,0,0-.385-.375.4.4,0,0,0-.385.375.4.4,0,0,0,.385.394" transform="translate(-2921.242 -1734.551)"/>
  <path id="Caminho_54" data-name="Caminho 54" d="M2951.608,1778.282h-.143c-.216,0-.394,0-.394-.257v-2.033c0-.615-.234-1.1-.9-1.1a2.3,2.3,0,0,0-1.361.593v-.513l-.048-.08a9.57,9.57,0,0,1-1.037.376v.151c.37.149.455.23.455.52v2.087c0,.258-.156.258-.375.258h-.143v.205c.284,0,.565-.015.849-.015s.561.015.835.015v-.205h-.143c-.216,0-.391,0-.391-.258V1775.7a2.081,2.081,0,0,1,.911-.379c.451,0,.725.217.725.672v2.037c0,.258-.158.258-.378.258h-.143v.205c.281,0,.565-.015.852-.015s.557.015.832.015Z" transform="translate(-2935.808 -1754.392)"/>
  <path id="Caminho_55" data-name="Caminho 55" d="M1.5,3.713a1.448,1.448,0,0,1-.762-.2,1.362,1.362,0,0,1-.459-.47A2.148,2.148,0,0,1,0,2a2.553,2.553,0,0,1,.171-.966A1.732,1.732,0,0,1,.589.422,1.6,1.6,0,0,1,1.111.1,1.388,1.388,0,0,1,1.591,0a1.446,1.446,0,0,1,.9.305,1.173,1.173,0,0,1,.433.931v.143l-.084.048H.63a1.962,1.962,0,0,0,0,.457,1.674,1.674,0,0,0,.359.961,1.033,1.033,0,0,0,.8.4,1.535,1.535,0,0,0,1.063-.528l.108.108a2.724,2.724,0,0,1-.621.624,1.438,1.438,0,0,1-.831.262ZM1.559.251C1.083.251.749.6.65,1.173H2.022c.193,0,.217-.1.217-.2A.769.769,0,0,0,2.066.463.649.649,0,0,0,1.559.251Z" transform="translate(15.768 20.498)"/>
  <path id="Caminho_56" data-name="Caminho 56" d="M3026.979,1778.483v-.2h-.433c-.217,0-.375,0-.375-.26v-1.849a.663.663,0,0,1,.573-.649c.275,0,.275.188.518.188a.388.388,0,0,0,.269-.125.384.384,0,0,0,.1-.279.433.433,0,0,0-.449-.415c-.476,0-.81.5-1.007.81h-.016v-.706l-.07-.1c-.071,0-.387.216-.961.45v.115c.116.066.409.111.409.355v2.21c0,.26-.158.26-.38.26h-.217v.2c.289,0,.615-.013.94-.013s.667,0,1.1.013" transform="translate(-3006.073 -1754.389)"/>
  <path id="Caminho_57" data-name="Caminho 57" d="M3057.893,1778.36a1.037,1.037,0,0,1-.992-.959l-.143.036.085.907a2.064,2.064,0,0,0,.963.269c.936,0,1.354-.552,1.354-1.072,0-1.234-1.828-.951-1.828-1.873a.558.558,0,0,1,.615-.521.809.809,0,0,1,.865.781H3059l-.054-.8a2.03,2.03,0,0,0-.9-.23,1.083,1.083,0,0,0-1.219,1.009c0,1.266,1.713.968,1.713,1.894a.556.556,0,0,1-.637.561" transform="translate(-3035.004 -1754.396)"/>
  <path id="Caminho_58" data-name="Caminho 58" d="M3112.043,1758.018l.182-1.148-.182-.047a1.6,1.6,0,0,1-1.583,1.364,2.564,2.564,0,0,1-2.342-2.732,2.243,2.243,0,0,1,2.218-2.494,1.5,1.5,0,0,1,1.684,1.3h.2l-.078-1.126a5.616,5.616,0,0,0-1.857-.418,2.891,2.891,0,0,0-2.978,2.769,2.8,2.8,0,0,0,3.005,2.957,4.411,4.411,0,0,0,1.732-.416" transform="translate(-3080.959 -1734.222)"/>
  <path id="Caminho_59" data-name="Caminho 59" d="M3166.243,1754.291v-.2h-.133c-.217,0-.39,0-.39-.26v-5.436l-.065-.11-.177.086a4.835,4.835,0,0,1-.809.341v.125c.3.084.42.1.42.613v4.382c0,.26-.161.26-.381.26h-.152v.2c.294,0,.576-.01.865-.01s.561.01.827.01" transform="translate(-3133.02 -1730.196)"/>
  <path id="Caminho_60" data-name="Caminho 60" d="M3183.621,1776.851v2.015a.848.848,0,0,0,.865.935,2.116,2.116,0,0,0,1.4-.66v.637l.037.024a8.138,8.138,0,0,1,1.136-.243v-.167h-.314c-.135,0-.217,0-.217-.148v-2.9l-.063-.143c-.08,0-.521.063-1.23.111v.138c.281.083.649.169.649.325v2.117a1.762,1.762,0,0,1-.95.481c-.684,0-.684-.677-.684-.915v-2.029c0-.173,0-.227-.084-.227s-.735.047-1.014.056v.149c.433.037.467.234.467.433" transform="translate(-3149.924 -1755.577)"/>
  <path id="Caminho_61" data-name="Caminho 61" d="M1.8,6.129A2.165,2.165,0,0,1,.8,5.9L.708,5.846l-.236.178L.31,5.947a9.169,9.169,0,0,0,.108-1.4V1.163A.753.753,0,0,0,.329.706a.541.541,0,0,0-.3-.149L0,.548V.433A5.161,5.161,0,0,0,.812.087L.987,0l.058.11V2.981A3.17,3.17,0,0,1,1.589,2.6,1.329,1.329,0,0,1,3.3,2.921a1.663,1.663,0,0,1,.288.528,1.949,1.949,0,0,1,.1.621,2.215,2.215,0,0,1-.517,1.416,1.858,1.858,0,0,1-.593.468,1.732,1.732,0,0,1-.779.175Zm0-3.289a1.217,1.217,0,0,0-.749.37V5.122a.866.866,0,0,0,.216.515.829.829,0,0,0,.247.208.756.756,0,0,0,.351.084,1.05,1.05,0,0,0,.911-.5A1.916,1.916,0,0,0,3.059,4.4a1.732,1.732,0,0,0-.4-1.1,1.422,1.422,0,0,0-.4-.336.953.953,0,0,0-.463-.13Z" transform="translate(37.112 18.084)"/>
  <path id="Caminho_62" data-name="Caminho 62" d="M2864.043,1833.208c-.217,0-.466-.015-.637-.015h-.016v.165h.076c.157,0,.3.019.3.216v2.24c0,.217-.146.217-.3.217h-.076v.167h.016c.171,0,.423-.018.63-.018s.47.018.678.018h.018v-.167h-.075c-.156,0-.3-.017-.3-.217v-2.24c0-.216.145-.216.3-.216h.075v-.165h-.022c-.206,0-.457.015-.671.015" transform="translate(-2859.19 -1807.401)"/>
  <path id="Caminho_63" data-name="Caminho 63" d="M2882.506,1833.22c-.2,0-.4-.015-.6-.015h-.017v.165H2882c.128,0,.353.044.353.385v1.574l-1.879-2.119h-.394c-.162,0-.329-.015-.492-.015h-.018v.165h.074a.368.368,0,0,1,.369.368v1.8c0,.342-.082.521-.366.523h-.078v.167h.018c.2,0,.392-.018.585-.018s.365.018.549.018h.022v-.167h-.095c-.32,0-.377-.108-.381-.483v-1.715l2.165,2.42h.2v-.02a2.675,2.675,0,0,1-.024-.433v-1.948c0-.507.184-.521.364-.526h.081v-.165h-.017c-.178,0-.353.015-.526.015" transform="translate(-2873.901 -1807.413)"/>
  <path id="Caminho_64" data-name="Caminho 64" d="M2921.624,1831.672v.021l-.216.119h-2.232l-.217-.113v-.013h-.136v.02l-.026.362-.052.364v.02h.166v-.013c.07-.315.065-.37.381-.374h.684v2.269c0,.329-.1.333-.34.338h-.1v.169h.018c.168,0,.469-.016.725-.016s.528.016.7.016H2921v-.169h-.1c-.2,0-.333-.024-.335-.346v-2.26h.684c.271,0,.287.232.3.394v.026l.15-.056h.012v-.357l.048-.346v-.018l-.121-.021Z" transform="translate(-2909.518 -1806.017)"/>
  <path id="Caminho_65" data-name="Caminho 65" d="M2955.445,1835.455v.017c-.125.48-.338.507-.849.507-.281,0-.506,0-.506-.258v-.978h.5c.285,0,.285.145.316.409v.018l.163-.032v-.015c0-.164-.014-.324-.014-.487s0-.334.014-.5v-.018h-.163v.015c-.028.234-.073.359-.318.361h-.494v-1.082h.579c.433,0,.478.2.5.483v.022l.15-.039h.016v-.015c0-.121-.016-.281-.016-.432v-.234h-.019c-.292,0-.736.015-1.1.015s-.806-.015-1.064-.015h-.019v.165h.078c.153,0,.3.018.3.227v2.241c0,.216-.148.216-.3.216h-.078v.167h.019c.245,0,.752-.02,1.139-.02s.866.02,1.149.02h.018v-.018c.037-.216.089-.452.148-.679v-.015l-.137-.035Z" transform="translate(-2940.781 -1807.39)"/>
  <path id="Caminho_66" data-name="Caminho 66" d="M1.394,3.034H0V2.86H.1c.175,0,.281-.08.281-.217V.479A.316.316,0,0,0,.29.219.32.32,0,0,0,.1.167H0V0H.684c.154,0,.247.011.362,0s.216,0,.325,0a1.394,1.394,0,0,1,.721.152A.621.621,0,0,1,2.321.39a.808.808,0,0,1-.5,1.145l.719,1.083a.448.448,0,0,0,.4.247h.015v.169H2.1a11.269,11.269,0,0,1-.885-1.392H.966v.9c0,.32.132.323.329.323h.1Zm-.2-2.84L.974.208V1.451h.184A.68.68,0,0,0,1.635,1.3.671.671,0,0,0,1.8.8.563.563,0,0,0,1.191.193Z" transform="translate(14.977 25.789)"/>
  <path id="Caminho_67" data-name="Caminho 67" d="M3019.212,1833.362v-.164h-.022c-.177,0-.351.015-.526.015s-.4-.015-.6-.015h-.018v.164h.111c.128,0,.355.043.355.388v1.574l-1.881-2.12h-.394c-.162,0-.332-.015-.494-.015h-.018v.165h.073a.365.365,0,0,1,.37.368v1.8c0,.342-.082.521-.366.526h-.076v.165h.018c.192,0,.391-.015.584-.015s.366.015.55.015h.02v-.165h-.091c-.325,0-.381-.111-.386-.483v-1.717l2.176,2.423h.2v-.019a2.429,2.429,0,0,1-.029-.433v-1.949c0-.506.19-.522.368-.526Z" transform="translate(-2997.698 -1807.406)"/>
  <path id="Caminho_68" data-name="Caminho 68" d="M1.015,3.133H.929c-.147,0-.3-.013-.448-.013a3.929,3.929,0,0,0-.4.013H0V2.968H.045A.357.357,0,0,0,.262,2.9.411.411,0,0,0,.4,2.7L1.082.736A4.867,4.867,0,0,0,1.254.195,1.97,1.97,0,0,0,1.643,0h.043l.045.028.039.106.786,2.247L2.6,2.5c.039.115.078.217.119.316a.245.245,0,0,0,.264.16h.05v.165H2.923c-.16,0-.327-.013-.5-.013s-.349,0-.53.013H1.756V2.968h.067l.245-.106a1.344,1.344,0,0,0-.082-.3l-.162-.483H.879l-.136.433c-.015.054-.032.1-.048.147a.669.669,0,0,0-.045.178c0,.115.193.132.305.132h.061v.167ZM1.342.65h0L.97,1.8h.745Z" transform="translate(21.455 25.683)"/>
  <path id="Caminho_69" data-name="Caminho 69" d="M3085.5,1831.672v.024l-.216.114h-2.23l-.217-.113v-.013h-.135v.019l-.026.362-.049.362v.02h.165v-.013c.068-.316.06-.37.379-.374h.682v2.269c0,.329-.1.333-.337.338h-.1v.169h.013c.167,0,.468-.015.723-.015s.531.015.7.015h.018v-.169h-.1c-.2,0-.333-.024-.336-.346v-2.26h.684c.271,0,.288.232.3.394v.026l.154-.056h.015v-.357l.048-.347v-.017l-.123-.022Z" transform="translate(-3058.518 -1806.017)"/>
  <path id="Caminho_70" data-name="Caminho 70" d="M3117.888,1833.225c-.217,0-.465-.015-.636-.015h-.015v.16h.078c.156,0,.294.022.3.229v2.243c0,.216-.143.216-.3.216h-.078v.167h.015c.169,0,.42-.017.632-.017s.468.017.676.017h.017v-.167h-.075c-.158,0-.3-.015-.3-.216V1833.6c0-.216.141-.216.3-.229h.075v-.16h-.017c-.2,0-.461.015-.672.015" transform="translate(-3089.992 -1807.416)"/>
  <path id="Caminho_71" data-name="Caminho 71" d="M1.622,3.153A1.68,1.68,0,0,1,.468,2.72,1.44,1.44,0,0,1,.126,2.23,1.63,1.63,0,0,1,0,1.6,1.6,1.6,0,0,1,.463.461,1.6,1.6,0,0,1,1.6,0,1.79,1.79,0,0,1,2.771.4a1.373,1.373,0,0,1,.355.463,1.5,1.5,0,0,1,.121.63,1.816,1.816,0,0,1-.119.669,1.541,1.541,0,0,1-.346.522,1.645,1.645,0,0,1-1.16.465ZM1.591.217a.831.831,0,0,0-.753.4,1.546,1.546,0,0,0-.2.825A1.962,1.962,0,0,0,.894,2.473a.888.888,0,0,0,.766.455.942.942,0,0,0,.494-.113.8.8,0,0,0,.29-.314,1.949,1.949,0,0,0,.173-.9A1.732,1.732,0,0,0,2.366.676.907.907,0,0,0,1.591.217Z" transform="translate(28.678 25.729)"/>
  <path id="Caminho_72" data-name="Caminho 72" d="M3173.167,1833.362v-.164h-.018c-.177,0-.35.015-.525.015s-.4-.015-.6-.015H3172v.164h.115c.125,0,.351.043.351.388v1.574l-1.879-2.12h-.4c-.16,0-.324-.015-.493-.015h-.016v.165h.071a.366.366,0,0,1,.368.368v1.8c0,.342-.084.522-.366.524h-.076v.167h.016c.2,0,.389-.015.584-.015s.366.015.552.015h.02v-.167h-.093c-.322,0-.376-.109-.383-.481v-1.717l2.165,2.422h.2v-.019a3.257,3.257,0,0,1-.021-.433v-1.948c0-.507.188-.521.363-.526Z" transform="translate(-3137.68 -1807.406)"/>
  <path id="Caminho_73" data-name="Caminho 73" d="M1.018,3.131H1c-.165,0-.342-.015-.515-.015s-.3,0-.463.015H0V2.968H.045A.377.377,0,0,0,.4,2.7L1.082.734A5.56,5.56,0,0,0,1.254.193,1.923,1.923,0,0,0,1.643,0h.043l.045.026.037.106.792,2.249V2.4a3.724,3.724,0,0,0,.152.414.249.249,0,0,0,.266.162h.052v.165H3.007c-.2,0-.388-.015-.589-.015s-.446,0-.649.015H1.758V2.968h.065L2.07,2.86a1.3,1.3,0,0,0-.084-.3l-.165-.483H.866l-.132.433q-.023.078-.045.143h0a.589.589,0,0,0-.039.182c0,.061.052.134.3.134h.069v.165ZM1.344.65h0L.968,1.8h.751Z" transform="translate(35.43 25.686)"/>
  <path id="Caminho_74" data-name="Caminho 74" d="M3244.269,1835.461v.015l-.132.3a.6.6,0,0,1-.4.217l-.319.017h-.239c-.134-.02-.238-.062-.241-.217v-2.208c0-.216.107-.216.271-.216h.125v-.165h-.017c-.217,0-.433.015-.65.015s-.446-.015-.675-.015h-.017v.165h.068c.156,0,.3.018.3.216v2.2c0,.253-.146.269-.3.271h-.078v.165h.017c.379,0,.756-.015,1.132-.015s.753.015,1.128.015h.016v-.013c.051-.245.11-.485.16-.728v-.023Z" transform="translate(-3203.402 -1807.409)"/>
  <path id="Caminho_75" data-name="Caminho 75" d="M.451.9A.433.433,0,0,1,0,.453.452.452,0,0,1,.128.132.446.446,0,0,1,.451,0,.446.446,0,0,1,.9.453a.45.45,0,0,1-.13.32A.448.448,0,0,1,.451.9Zm0-.816A.353.353,0,0,0,.193.2a.372.372,0,0,0-.1.255.375.375,0,0,0,.1.255.353.353,0,0,0,.258.11A.368.368,0,0,0,.808.453.375.375,0,0,0,.7.2.349.349,0,0,0,.451.087Z" transform="translate(40.505 25.688)"/>
  <path id="Caminho_76" data-name="Caminho 76" d="M.216.478H0V.457L.065.414V.082L0,.022V0H.236L.385.119.277.255l.076.1.1.1V.478H.364L.2.268H.152V.42L.216.457ZM.152.028V.245H.206L.29.126.2.028Z" transform="translate(40.73 25.9)"/>
  <path id="Caminho_77" data-name="Caminho 77" d="M43.083,32.655H1.782A1.782,1.782,0,0,1,.141,31.572,1.752,1.752,0,0,1,0,30.886V1.771A1.76,1.76,0,0,1,.522.517,1.782,1.782,0,0,1,1.782,0h41.3a1.784,1.784,0,0,1,1.643,1.083,1.749,1.749,0,0,1,.141.688V30.886a1.758,1.758,0,0,1-.522,1.251,1.784,1.784,0,0,1-1.26.517ZM1.782.433a1.334,1.334,0,0,0-.946.39,1.316,1.316,0,0,0-.4.948V30.886a1.316,1.316,0,0,0,.392.94,1.334,1.334,0,0,0,.946.39H43.083a1.336,1.336,0,0,0,1.338-1.329V1.771A1.336,1.336,0,0,0,43.083.433Z" transform="translate(0 0)"/>
</svg>
