<svg xmlns="http://www.w3.org/2000/svg" width="88.45" height="39.938" viewBox="0 0 88.45 39.938">
  <g id="Grupo_830" data-name="Grupo 830" transform="translate(-990.397 -4566)">
    <g id="Grupo_655" data-name="Grupo 655" transform="translate(990.397 4566)">
      <path id="Caminho_1552" data-name="Caminho 1552" d="M18.328,7.833H8.119V43.995H18.328v1.888H5.971V5.945H18.328Z" transform="translate(-5.971 -5.945)" fill="#efaf06"/>
    </g>
    <g id="Grupo_656" data-name="Grupo 656" transform="translate(999.237 4574.339)">
      <path id="Caminho_1553" data-name="Caminho 1553" d="M66.158,66.791a2.4,2.4,0,0,0,1.6.552A2.829,2.829,0,0,0,69,67.087a4.052,4.052,0,0,0,1.039-.751l1.135,1.007a4.676,4.676,0,0,1-1.447,1.151,4.342,4.342,0,0,1-2.007.432,4.508,4.508,0,0,1-1.7-.32,4.087,4.087,0,0,1-2.295-2.279,4.642,4.642,0,0,1-.336-1.8,4.775,4.775,0,0,1,.3-1.711,4.3,4.3,0,0,1,.856-1.4,4.131,4.131,0,0,1,1.3-.951,3.877,3.877,0,0,1,1.663-.352,4.012,4.012,0,0,1,1.767.368,3.641,3.641,0,0,1,1.263.991,4.3,4.3,0,0,1,.759,1.455,5.9,5.9,0,0,1,.256,1.743q0,.128-.008.256c-.006.086-.014.176-.024.272h-6.2A2.546,2.546,0,0,0,66.158,66.791Zm3.486-2.87a3.312,3.312,0,0,0-.208-.871,2.236,2.236,0,0,0-.432-.7,2.058,2.058,0,0,0-.647-.472A2,2,0,0,0,67.5,61.7a1.95,1.95,0,0,0-1.479.616,2.78,2.78,0,0,0-.712,1.607Z" transform="translate(-63.392 -60.116)" fill="#1e201e"/>
      <path id="Caminho_1554" data-name="Caminho 1554" d="M132.541,68.486a4.185,4.185,0,0,1-2.031.44,4.372,4.372,0,0,1-1.743-.344,4.3,4.3,0,0,1-1.388-.944,4.365,4.365,0,0,1-1.249-3.094,4.442,4.442,0,0,1,1.249-3.118,4.339,4.339,0,0,1,3.148-1.311,4.4,4.4,0,0,1,1.991.4,4.709,4.709,0,0,1,1.383,1.055l-1.2,1.3a4.491,4.491,0,0,0-.951-.759,2.412,2.412,0,0,0-1.239-.3,2.215,2.215,0,0,0-.975.216,2.366,2.366,0,0,0-.768.584,2.791,2.791,0,0,0-.5.856,2.942,2.942,0,0,0-.184,1.047,3.054,3.054,0,0,0,.184,1.071,2.612,2.612,0,0,0,.52.863,2.5,2.5,0,0,0,.8.584,2.575,2.575,0,0,0,2.23-.08,4.642,4.642,0,0,0,.983-.76l1.167,1.151A5.312,5.312,0,0,1,132.541,68.486Z" transform="translate(-116.472 -60.116)" fill="#1e201e"/>
      <path id="Caminho_1555" data-name="Caminho 1555" d="M192.54,66.224a4.385,4.385,0,0,1-2.374,2.35,4.8,4.8,0,0,1-3.59.008,4.331,4.331,0,0,1-2.358-2.335,4.478,4.478,0,0,1,.008-3.422,4.412,4.412,0,0,1,.943-1.407,4.475,4.475,0,0,1,1.423-.951,4.535,4.535,0,0,1,1.8-.352,4.624,4.624,0,0,1,1.8.344,4.341,4.341,0,0,1,2.694,4.053A4.288,4.288,0,0,1,192.54,66.224Zm-1.8-2.734a2.75,2.75,0,0,0-.532-.871,2.493,2.493,0,0,0-.81-.592,2.5,2.5,0,0,0-2.884.584,2.529,2.529,0,0,0-.508.856,3.086,3.086,0,0,0-.175,1.047,2.977,2.977,0,0,0,.191,1.063,2.63,2.63,0,0,0,.532.871,2.551,2.551,0,0,0,.81.584,2.423,2.423,0,0,0,1.025.216,2.5,2.5,0,0,0,1.056-.216,2.457,2.457,0,0,0,.8-.584,2.526,2.526,0,0,0,.508-.855,3.084,3.084,0,0,0,.175-1.047A2.918,2.918,0,0,0,190.743,63.49Z" transform="translate(-165.334 -60.116)" fill="#1e201e"/>
      <path id="Caminho_1556" data-name="Caminho 1556" d="M257.087,68.734h-1.951V60.292h1.951v1.325a4.733,4.733,0,0,1,.454-.573,2.97,2.97,0,0,1,.574-.476,2.919,2.919,0,0,1,.717-.331,2.983,2.983,0,0,1,.885-.121,2.811,2.811,0,0,1,2.216.879,3.434,3.434,0,0,1,.781,2.367v5.372h-1.951V63.948a2.243,2.243,0,0,0-.468-1.523,1.665,1.665,0,0,0-1.324-.534,1.8,1.8,0,0,0-1.363.55,2.145,2.145,0,0,0-.523,1.539Z" transform="translate(-225.62 -60.116)" fill="#1e201e"/>
      <path id="Caminho_1557" data-name="Caminho 1557" d="M318.9,61.259h2.031l-3.454,8.506h-1.743l-3.47-8.506h2.079l2.27,6.2Z" transform="translate(-273.956 -61.083)" fill="#1e201e"/>
      <path id="Caminho_1558" data-name="Caminho 1558" d="M375.9,66.791a2.4,2.4,0,0,0,1.6.552,2.829,2.829,0,0,0,1.247-.256,4.057,4.057,0,0,0,1.039-.751l1.135,1.007a4.677,4.677,0,0,1-1.447,1.151,4.343,4.343,0,0,1-2.007.432,4.508,4.508,0,0,1-1.7-.32,4.087,4.087,0,0,1-2.294-2.279,4.643,4.643,0,0,1-.336-1.8,4.775,4.775,0,0,1,.3-1.711,4.294,4.294,0,0,1,.855-1.4,4.131,4.131,0,0,1,1.3-.951,3.876,3.876,0,0,1,1.663-.352,4.011,4.011,0,0,1,1.767.368,3.64,3.64,0,0,1,1.263.991,4.3,4.3,0,0,1,.759,1.455,5.9,5.9,0,0,1,.256,1.743q0,.128-.008.256c-.005.086-.014.176-.024.272h-6.2A2.546,2.546,0,0,0,375.9,66.791Zm3.486-2.87a3.313,3.313,0,0,0-.208-.871,2.232,2.232,0,0,0-.432-.7,2.061,2.061,0,0,0-.648-.472,2,2,0,0,0-.855-.176,1.95,1.95,0,0,0-1.479.616,2.779,2.779,0,0,0-.711,1.607Z" transform="translate(-325.453 -60.116)" fill="#1e201e"/>
      <path id="Caminho_1559" data-name="Caminho 1559" d="M439.225,68.8h-1.951V60.36h1.951v1.9a3.713,3.713,0,0,1,1.135-1.535,2.719,2.719,0,0,1,1.855-.528v2.047H442.1a3.165,3.165,0,0,0-1.167.208,2.446,2.446,0,0,0-.911.624,2.818,2.818,0,0,0-.592,1.047,4.68,4.68,0,0,0-.208,1.463Z" transform="translate(-379.721 -60.184)" fill="#1e201e"/>
      <path id="Caminho_1560" data-name="Caminho 1560" d="M482.182,67.583a2.279,2.279,0,0,1-.663.823,2.973,2.973,0,0,1-1,.5,4.38,4.38,0,0,1-1.231.168,5.684,5.684,0,0,1-1.847-.32,5.913,5.913,0,0,1-1.735-.943l.863-1.311a5.608,5.608,0,0,0,1.4.775,3.924,3.924,0,0,0,1.367.264,1.631,1.631,0,0,0,.967-.248.778.778,0,0,0,.344-.663v-.032a.615.615,0,0,0-.152-.416,1.37,1.37,0,0,0-.416-.312,3.658,3.658,0,0,0-.608-.24l-.711-.216q-.464-.144-.935-.32a3.381,3.381,0,0,1-.847-.456,2.3,2.3,0,0,1-.616-.688,1.974,1.974,0,0,1-.24-1.015V62.9a2.429,2.429,0,0,1,.232-1.071,2.391,2.391,0,0,1,.64-.815,2.857,2.857,0,0,1,.959-.512,3.845,3.845,0,0,1,1.175-.176,5.379,5.379,0,0,1,1.615.256,5.791,5.791,0,0,1,1.487.7l-.767,1.375a6.473,6.473,0,0,0-1.231-.584,3.54,3.54,0,0,0-1.151-.216,1.4,1.4,0,0,0-.871.24.736.736,0,0,0-.312.608v.032a.55.55,0,0,0,.16.392,1.573,1.573,0,0,0,.424.3,4.77,4.77,0,0,0,.608.256q.344.12.711.232.464.144.927.336a3.912,3.912,0,0,1,.839.472,2.348,2.348,0,0,1,.615.679,1.863,1.863,0,0,1,.24.975v.032A2.65,2.65,0,0,1,482.182,67.583Z" transform="translate(-412.237 -60.292)" fill="#1e201e"/>
      <path id="Caminho_1561" data-name="Caminho 1561" d="M530.253,66.791a2.4,2.4,0,0,0,1.6.552,2.829,2.829,0,0,0,1.247-.256,4.056,4.056,0,0,0,1.039-.751l1.135,1.007a4.678,4.678,0,0,1-1.447,1.151,4.343,4.343,0,0,1-2.007.432,4.508,4.508,0,0,1-1.7-.32,4.086,4.086,0,0,1-2.294-2.279,4.641,4.641,0,0,1-.336-1.8,4.777,4.777,0,0,1,.3-1.711,4.3,4.3,0,0,1,.855-1.4,4.132,4.132,0,0,1,1.3-.951,3.876,3.876,0,0,1,1.663-.352,4.012,4.012,0,0,1,1.767.368,3.639,3.639,0,0,1,1.263.991,4.3,4.3,0,0,1,.759,1.455,5.9,5.9,0,0,1,.256,1.743q0,.128-.008.256c-.005.086-.013.176-.024.272h-6.2A2.546,2.546,0,0,0,530.253,66.791Zm3.485-2.87a3.31,3.31,0,0,0-.208-.871,2.233,2.233,0,0,0-.432-.7,2.06,2.06,0,0,0-.647-.472,2,2,0,0,0-.856-.176,1.95,1.95,0,0,0-1.479.616,2.779,2.779,0,0,0-.711,1.607Z" transform="translate(-456.047 -60.116)" fill="#1e201e"/>
    </g>
    <g id="Grupo_657" data-name="Grupo 657" transform="translate(999.247 4587.003)">
      <path id="Caminho_1562" data-name="Caminho 1562" d="M69.437,152.192v-1.4a5.409,5.409,0,0,1-.477.591,3.264,3.264,0,0,1-.584.5,2.714,2.714,0,0,1-.718.336,3.007,3.007,0,0,1-.879.121,3.2,3.2,0,0,1-1.222-.242,3.254,3.254,0,0,1-1.061-.705,3.436,3.436,0,0,1-.752-1.134,4.3,4.3,0,0,1,0-3.061,3.439,3.439,0,0,1,.752-1.134,3.348,3.348,0,0,1,1.061-.712,3.124,3.124,0,0,1,1.222-.248,3.076,3.076,0,0,1,.886.121,2.989,2.989,0,0,1,.725.322,3.14,3.14,0,0,1,.584.47,4.223,4.223,0,0,1,.463.564v-4.189h1.034v9.8Zm-.168-4.572a2.534,2.534,0,0,0-.564-.842,2.644,2.644,0,0,0-.806-.541,2.335,2.335,0,0,0-.933-.194,2.5,2.5,0,0,0-.953.18,2.229,2.229,0,0,0-.772.521,2.491,2.491,0,0,0-.524.842,3.093,3.093,0,0,0-.195,1.129,3,3,0,0,0,.195,1.109,2.6,2.6,0,0,0,.53.848,2.289,2.289,0,0,0,.779.541,2.392,2.392,0,0,0,.94.187,2.332,2.332,0,0,0,.933-.194,2.639,2.639,0,0,0,.806-.541,2.518,2.518,0,0,0,.564-.848,2.849,2.849,0,0,0,.208-1.1A2.8,2.8,0,0,0,69.27,147.619Z" transform="translate(-63.463 -142.391)" fill="#1e201e"/>
      <path id="Caminho_1563" data-name="Caminho 1563" d="M122.6,144.839V143.7h1.181v1.141Zm.067,8.458v-6.941H123.7V153.3Z" transform="translate(-113.498 -143.497)" fill="#1e201e"/>
      <path id="Caminho_1564" data-name="Caminho 1564" d="M147.9,167.365a2.781,2.781,0,0,1-.712,1.054,3.044,3.044,0,0,1-1.114.638,4.641,4.641,0,0,1-1.457.215,5.672,5.672,0,0,1-1.665-.242,5.351,5.351,0,0,1-1.49-.725l.47-.806a5.013,5.013,0,0,0,1.262.658,4.272,4.272,0,0,0,1.41.228,2.625,2.625,0,0,0,1.839-.624,2.373,2.373,0,0,0,.685-1.846V165.1a4.391,4.391,0,0,1-1.114,1.034,2.882,2.882,0,0,1-1.611.43,3.4,3.4,0,0,1-1.215-.222,3.148,3.148,0,0,1-1.772-1.672,3.268,3.268,0,0,1-.275-1.369,3.315,3.315,0,0,1,.275-1.376,3.154,3.154,0,0,1,.732-1.034,3.241,3.241,0,0,1,1.047-.651,3.4,3.4,0,0,1,2.1-.114,3.227,3.227,0,0,1,.738.3,3.108,3.108,0,0,1,.6.443,4.532,4.532,0,0,1,.483.537v-1.249h1.034v5.733A4.017,4.017,0,0,1,147.9,167.365Zm-.96-5.055a2.358,2.358,0,0,0-.571-.745,2.6,2.6,0,0,0-.812-.477,2.743,2.743,0,0,0-.953-.168,2.672,2.672,0,0,0-.933.161,2.237,2.237,0,0,0-.765.47,2.206,2.206,0,0,0-.517.745,2.437,2.437,0,0,0-.188.973,2.339,2.339,0,0,0,.718,1.725,2.263,2.263,0,0,0,.765.483,2.534,2.534,0,0,0,.92.168,2.735,2.735,0,0,0,.953-.168,2.589,2.589,0,0,0,.812-.476,2.349,2.349,0,0,0,.571-.745,2.312,2.312,0,0,0,0-1.947Z" transform="translate(-129.182 -157.296)" fill="#1e201e"/>
      <path id="Caminho_1565" data-name="Caminho 1565" d="M200.277,144.839V143.7h1.182v1.141Zm.067,8.458v-6.941h1.034V153.3Z" transform="translate(-179.217 -143.497)" fill="#1e201e"/>
      <path id="Caminho_1566" data-name="Caminho 1566" d="M219.53,154.424a1.087,1.087,0,0,0,.322.9,1.321,1.321,0,0,0,.846.255,2.087,2.087,0,0,0,1.007-.242v.886a2.318,2.318,0,0,1-.571.221,2.867,2.867,0,0,1-.678.074,2.735,2.735,0,0,1-.779-.107,1.6,1.6,0,0,1-.624-.342,1.579,1.579,0,0,1-.41-.611,2.459,2.459,0,0,1-.148-.9v-4.189h-.967v-.913h.967v-2.094h1.034v2.094h2.2v.913h-2.2Z" transform="translate(-193.813 -146.597)" fill="#1e201e"/>
      <path id="Caminho_1567" data-name="Caminho 1567" d="M253.615,161.412a6.268,6.268,0,0,0-.987.369l-.309-.846a6.9,6.9,0,0,1,1.168-.423,5.394,5.394,0,0,1,1.356-.154,3.115,3.115,0,0,1,2.188.7,2.7,2.7,0,0,1,.765,2.088v4.243H256.8v-1.047a3.4,3.4,0,0,1-.973.832,2.973,2.973,0,0,1-1.537.362,3.392,3.392,0,0,1-.947-.134,2.578,2.578,0,0,1-.832-.409,2.094,2.094,0,0,1-.591-.678,1.946,1.946,0,0,1-.222-.953,2.123,2.123,0,0,1,.215-.974,1.928,1.928,0,0,1,.611-.7,2.932,2.932,0,0,1,.94-.43,4.59,4.59,0,0,1,1.2-.147,7.412,7.412,0,0,1,1.168.08,8.485,8.485,0,0,1,.967.215v-.242a1.784,1.784,0,0,0-.544-1.416,2.238,2.238,0,0,0-1.524-.476A4.158,4.158,0,0,0,253.615,161.412Zm-.33,2.853a1.253,1.253,0,0,0-.522,1.061,1.2,1.2,0,0,0,.141.591,1.363,1.363,0,0,0,.381.436,1.738,1.738,0,0,0,.555.275,2.3,2.3,0,0,0,.663.094,2.83,2.83,0,0,0,.9-.141,2.4,2.4,0,0,0,.736-.39,1.841,1.841,0,0,0,.5-.591,1.6,1.6,0,0,0,.181-.759v-.671q-.388-.107-.89-.2a6.271,6.271,0,0,0-1.144-.094A2.475,2.475,0,0,0,253.285,164.265Z" transform="translate(-222.726 -157.592)" fill="#1e201e"/>
      <path id="Caminho_1568" data-name="Caminho 1568" d="M304.649,152.192v-9.8h1.034v9.8Z" transform="translate(-267.522 -142.391)" fill="#1e201e"/>
    </g>
  </g>
</svg>
