<svg id="_3" data-name="3" xmlns="http://www.w3.org/2000/svg" width="40.24" height="20.061" viewBox="0 0 40.24 20.061">
  <path id="Caminho_86" data-name="Caminho 86" d="M1498.735,1805.049a4.787,4.787,0,0,1-5.93.633l-1.791,2.855a8.168,8.168,0,0,0,10.073-1.073Z" transform="translate(-1487.182 -1789.735)"/>
  <path id="Caminho_87" data-name="Caminho 87" d="M1.327,12.653A8.179,8.179,0,0,1,8.179,0h.128a8.187,8.187,0,0,1,7.844,6.316ZM8.182,3.368A4.821,4.821,0,0,0,3.365,8.114a4.189,4.189,0,0,0,.028.581l8.468-3.617a4.887,4.887,0,0,0-.725-.7,4.829,4.829,0,0,0-.858-.535A4.762,4.762,0,0,0,8.26,3.37Z" transform="translate(0.004 3.686)"/>
  <path id="Caminho_88" data-name="Caminho 88" d="M1693.513,1584.514v15.8l2.742,1.138-1.3,3.118-2.712-1.129a3.073,3.073,0,0,1-1.338-1.122,3.535,3.535,0,0,1-.525-1.961v-15.846Z" transform="translate(-1672.709 -1584.514)"/>
  <path id="Caminho_89" data-name="Caminho 89" d="M1863.49,1641.218a4.82,4.82,0,0,1,6.246,3.608l3.3-.674a8.2,8.2,0,0,0-10.616-6.127Z" transform="translate(-1832.801 -1633.918)"/>
  <path id="Caminho_90" data-name="Caminho 90" d="M1784.649,1679.465l2.234-2.522a4.815,4.815,0,0,1,0-7.213l-2.233-2.526a8.185,8.185,0,0,0,0,12.254" transform="translate(-1757.855 -1661.464)"/>
  <path id="Caminho_91" data-name="Caminho 91" d="M1869.677,1769.407a4.82,4.82,0,0,1-6.248,3.6l-1.07,3.2a8.192,8.192,0,0,0,10.621-6.127Z" transform="translate(-1832.741 -1756.567)"/>
</svg>
