<svg xmlns="http://www.w3.org/2000/svg" width="86" height="66.79" viewBox="0 0 86 66.79">
  <g id="let-s-encrypt-seeklogo.com" transform="translate(-0.391 -0.311)">
    <g id="Grupo_654" data-name="Grupo 654" transform="translate(47.186 0.311)">
      <path id="Caminho_1538" data-name="Caminho 1538" d="M50.329,44.516H45.357V41.951a3.716,3.716,0,0,0-7.433,0v2.565H32.951V41.951a8.689,8.689,0,0,1,17.378,0Z" transform="translate(-22.012 -22.165)"/>
      <path id="Caminho_1539" data-name="Caminho 1539" d="M45.052,66.68H23.591a1.654,1.654,0,0,0-1.675,1.675v15.86a1.654,1.654,0,0,0,1.675,1.675H45.052a1.654,1.654,0,0,0,1.675-1.675V68.355A1.722,1.722,0,0,0,45.052,66.68ZM35.368,77.1v2.146a1.1,1.1,0,1,1-2.2,0V77.1a2.159,2.159,0,0,1-1.1-1.937,2.2,2.2,0,1,1,4.4,0A2.063,2.063,0,0,1,35.368,77.1Z" transform="translate(-14.692 -44.329)"/>
      <path id="Caminho_1540" data-name="Caminho 1540" d="M7.166,53.706H1.984a1.518,1.518,0,0,1,0-3.036H7.166a1.518,1.518,0,0,1,0,3.036Z" transform="translate(-0.466 -33.711)"/>
      <path id="Caminho_1541" data-name="Caminho 1541" d="M20.273,22.82a1.344,1.344,0,0,1-.942-.366L15.248,19.1a1.525,1.525,0,0,1,1.937-2.355l4.083,3.35a1.552,1.552,0,0,1,.209,2.146A1.741,1.741,0,0,1,20.273,22.82Z" transform="translate(-9.909 -10.99)"/>
      <path id="Caminho_1542" data-name="Caminho 1542" d="M55.763,8.581a1.519,1.519,0,0,1-1.518-1.518V1.829a1.518,1.518,0,1,1,3.036,0V7.063A1.519,1.519,0,0,1,55.763,8.581Z" transform="translate(-36.135 -0.311)"/>
      <path id="Caminho_1543" data-name="Caminho 1543" d="M83.181,22.82a1.463,1.463,0,0,1-1.152-.576,1.557,1.557,0,0,1,.209-2.146l4.083-3.35A1.525,1.525,0,1,1,88.258,19.1l-4.083,3.35A1.468,1.468,0,0,1,83.181,22.82Z" transform="translate(-54.34 -10.99)"/>
      <path id="Caminho_1544" data-name="Caminho 1544" d="M99.078,53.706H93.844a1.518,1.518,0,0,1,0-3.036h5.234a1.518,1.518,0,0,1,0,3.036Z" transform="translate(-61.391 -33.711)"/>
    </g>
    <path id="Caminho_1545" data-name="Caminho 1545" d="M.391,89.186V72.279H4.474V85.626h6.543v3.559Zm24.13-5.81v.942H15.885a2.577,2.577,0,0,0,.314.89,1.96,1.96,0,0,0,.628.68,2.91,2.91,0,0,0,.89.471,3.286,3.286,0,0,0,.995.157,3.172,3.172,0,0,0,2.617-1.256l2.722,1.727a5.881,5.881,0,0,1-2.2,1.884,7.549,7.549,0,0,1-3.193.68,7.9,7.9,0,0,1-2.512-.419,6.429,6.429,0,0,1-2.094-1.2,6.13,6.13,0,0,1-1.937-4.659,6,6,0,0,1,.523-2.617A5.388,5.388,0,0,1,14,78.665a5.819,5.819,0,0,1,2.041-1.256,6.7,6.7,0,0,1,2.512-.471,7.037,7.037,0,0,1,2.408.419,5.94,5.94,0,0,1,1.884,1.256,5.7,5.7,0,0,1,1.2,2.041A7.622,7.622,0,0,1,24.521,83.375ZM20.91,81.91a2.558,2.558,0,0,0-.576-1.623,2.149,2.149,0,0,0-1.78-.68,3.375,3.375,0,0,0-1.047.157,2.654,2.654,0,0,0-.837.471,2.545,2.545,0,0,0-.576.733,2.51,2.51,0,0,0-.262.89H20.91ZM30.8,80.235v4.554a2.012,2.012,0,0,0,.314,1.256,1.388,1.388,0,0,0,1.152.419,2.547,2.547,0,0,0,.628-.052,3.253,3.253,0,0,0,.523-.157l.052,2.879a10.084,10.084,0,0,1-1.047.262,10.166,10.166,0,0,1-1.256.1,5.467,5.467,0,0,1-1.989-.314,3.322,3.322,0,0,1-1.309-.837,3.044,3.044,0,0,1-.68-1.361,8.669,8.669,0,0,1-.209-1.727V80.235H25.045V77.3h1.884V74.163H30.8V77.3h2.774v2.931Zm6.386-8.27A2,2,0,0,0,35.095,73.9a1.8,1.8,0,0,0,1.937,1.884.392.392,0,0,0,.262-.052,2.192,2.192,0,0,1-1.78,1.57h-.157v1.832h.209a4.463,4.463,0,0,0,2.512-1.152,4.772,4.772,0,0,0,1.361-3.559A2.289,2.289,0,0,0,37.188,71.965Zm9.055,8.846a4.192,4.192,0,0,0-1.1-.785,3.054,3.054,0,0,0-1.361-.314,2.124,2.124,0,0,0-.995.209.741.741,0,0,0-.471.733.764.764,0,0,0,.523.733,8.655,8.655,0,0,0,1.675.471,6.771,6.771,0,0,1,1.361.419,6.577,6.577,0,0,1,1.2.68A2.884,2.884,0,0,1,47.971,84a3.187,3.187,0,0,1,.314,1.466,3.6,3.6,0,0,1-.471,1.884,3.464,3.464,0,0,1-1.2,1.256,5.6,5.6,0,0,1-1.623.68,7.293,7.293,0,0,1-1.832.209,8.43,8.43,0,0,1-2.827-.471,5.857,5.857,0,0,1-2.3-1.361l2.2-2.3a4.933,4.933,0,0,0,1.309.942,3.507,3.507,0,0,0,1.623.366,2.053,2.053,0,0,0,.942-.209.812.812,0,0,0,.471-.785.952.952,0,0,0-.576-.837,9.475,9.475,0,0,0-1.78-.523,11.366,11.366,0,0,1-1.256-.366,3.765,3.765,0,0,1-1.1-.628,3.667,3.667,0,0,1-.785-.995,3.116,3.116,0,0,1-.314-1.413,3.406,3.406,0,0,1,.471-1.832,3.63,3.63,0,0,1,1.152-1.2,4.221,4.221,0,0,1,1.57-.68,6.5,6.5,0,0,1,1.727-.209,8.83,8.83,0,0,1,2.617.419,5.185,5.185,0,0,1,2.146,1.256ZM.391,108.762V91.855H11.75V95.31H4.317V98.5h7.014v3.245H4.317v3.507h7.852v3.507Zm22.089,0v-6.491a5.768,5.768,0,0,0-.1-.942,2.759,2.759,0,0,0-.262-.785,1.261,1.261,0,0,0-.523-.523,1.5,1.5,0,0,0-.89-.209,1.792,1.792,0,0,0-.942.209,2.349,2.349,0,0,0-.68.576,4.173,4.173,0,0,0-.419.838,2.964,2.964,0,0,0-.157.942v6.438H14.576V96.932h3.769v1.623H18.4a2.545,2.545,0,0,1,.576-.733,2.965,2.965,0,0,1,.785-.628,5.673,5.673,0,0,1,.995-.419,4.081,4.081,0,0,1,1.152-.157,4.892,4.892,0,0,1,2.041.419,4.065,4.065,0,0,1,1.361,1.1,4.321,4.321,0,0,1,.733,1.57,6.633,6.633,0,0,1,.209,1.78v7.328H22.48ZM36.508,100.7a2.372,2.372,0,0,0-.89-.68,3.063,3.063,0,0,0-1.152-.262,2.433,2.433,0,0,0-1.1.262,2.1,2.1,0,0,0-.837.68,5.66,5.66,0,0,0-.576.942,3.271,3.271,0,0,0,0,2.3,2.19,2.19,0,0,0,.576.942,2.7,2.7,0,0,0,2.041.942,3.245,3.245,0,0,0,1.2-.209,2.423,2.423,0,0,0,.942-.68l2.146,2.669a5.123,5.123,0,0,1-1.884,1.1,7.831,7.831,0,0,1-2.46.419,8.312,8.312,0,0,1-2.617-.419,5.541,5.541,0,0,1-2.146-1.256,6.13,6.13,0,0,1-1.937-4.659,6,6,0,0,1,.523-2.617,6.214,6.214,0,0,1,1.413-1.989A5.819,5.819,0,0,1,31.9,96.932a7.228,7.228,0,0,1,2.617-.419,10.166,10.166,0,0,1,1.256.1c.419.1.837.209,1.2.314a10.461,10.461,0,0,1,1.1.523,3.655,3.655,0,0,1,.837.68Zm11.411-.576a1.86,1.86,0,0,0-.523-.1h-.471a3.232,3.232,0,0,0-1.309.262,2.8,2.8,0,0,0-.837.68,2.91,2.91,0,0,0-.471.89,2.6,2.6,0,0,0-.157.837v6.072H40.224V96.88h3.769v1.727h.052a3.551,3.551,0,0,1,1.309-1.466,3.51,3.51,0,0,1,1.937-.576h.471c.157,0,.262.052.366.052Zm9.212,10.416c-.262.628-.523,1.152-.785,1.675a6.073,6.073,0,0,1-1.047,1.256,4.667,4.667,0,0,1-1.413.785,6.931,6.931,0,0,1-1.937.262,8.873,8.873,0,0,1-1.152-.052,4.722,4.722,0,0,1-.995-.209l.419-3.3.628.157a2.548,2.548,0,0,0,.628.052,1.776,1.776,0,0,0,1.309-.419,2.914,2.914,0,0,0,.68-1.2l.366-.995L48.861,96.88h4.344l2.67,7.642h.052l2.355-7.642h4.135Zm19.576-7.747a7.466,7.466,0,0,1-.366,2.408,6.971,6.971,0,0,1-1.1,2.041,5.907,5.907,0,0,1-1.78,1.413,5.1,5.1,0,0,1-2.408.523,5.744,5.744,0,0,1-2.094-.419,3.888,3.888,0,0,1-1.518-1.2H67.39v7.066H63.465V97.037h3.716V98.5h.052a5.261,5.261,0,0,1,1.518-1.256,4.542,4.542,0,0,1,2.3-.523,5.173,5.173,0,0,1,2.355.523,5.056,5.056,0,0,1,1.78,1.361,6.69,6.69,0,0,1,1.1,1.989A5.486,5.486,0,0,1,76.708,102.795Zm-3.821,0a3.985,3.985,0,0,0-.157-1.1,2.744,2.744,0,0,0-.523-.942,2.372,2.372,0,0,0-.89-.68,2.9,2.9,0,0,0-2.408,0,2.877,2.877,0,0,0-.89.68,3.1,3.1,0,0,0-.576.995,2.99,2.99,0,0,0,0,2.2,3.79,3.79,0,0,0,.576.995,2.877,2.877,0,0,0,.89.68,2.908,2.908,0,0,0,1.2.262,2.729,2.729,0,0,0,1.2-.262,2.877,2.877,0,0,0,.89-.68,3,3,0,0,0,.523-.995A4.668,4.668,0,0,0,72.887,102.795Zm10.05-2.984v4.554a2.013,2.013,0,0,0,.314,1.256,1.388,1.388,0,0,0,1.152.419,2.549,2.549,0,0,0,.628-.052,3.251,3.251,0,0,0,.523-.157l.052,2.879a7.237,7.237,0,0,1-2.3.366,5.467,5.467,0,0,1-1.989-.314,3.322,3.322,0,0,1-1.309-.838,3.044,3.044,0,0,1-.68-1.361,8.67,8.67,0,0,1-.209-1.727V99.811H77.231V96.88h1.884V93.739h3.821V96.88h2.774v2.931Z" transform="translate(0 -47.523)"/>
  </g>
</svg>
