<svg id="Grupo_320" data-name="Grupo 320" xmlns="http://www.w3.org/2000/svg" width="42.018" height="32.655" viewBox="0 0 42.018 32.655">
  <g id="Grupo_67" data-name="Grupo 67" transform="translate(2.228 28.939)">
    <path id="Caminho_107" data-name="Caminho 107" d="M7.49-22.723A1.264,1.264,0,0,0,7.069-23a1.475,1.475,0,0,0-.54-.1,2.1,2.1,0,0,0-.324.027,1.511,1.511,0,0,0-.33.092,1.245,1.245,0,0,0-.307.189,1.2,1.2,0,0,0-.252.3,1.245,1.245,0,0,0-.467-.45,1.385,1.385,0,0,0-.679-.164,1.88,1.88,0,0,0-.265.025,1.4,1.4,0,0,0-.273.08,1.158,1.158,0,0,0-.258.156,1.126,1.126,0,0,0-.221.248v-.42H2.433v3.426H3.16v-1.891a1.067,1.067,0,0,1,.067-.389.871.871,0,0,1,.185-.284.822.822,0,0,1,.271-.174.945.945,0,0,1,.332-.059.727.727,0,0,1,.57.231.986.986,0,0,1,.21.664v1.906H5.52v-1.891a1.026,1.026,0,0,1,.069-.389.871.871,0,0,1,.185-.284.822.822,0,0,1,.271-.174.937.937,0,0,1,.332-.059.722.722,0,0,1,.567.231.986.986,0,0,1,.21.664v1.906h.727v-2.152a1.5,1.5,0,0,0-.1-.551,1.291,1.291,0,0,0-.28-.431" transform="translate(-2.433 23.108)"/>
  </g>
  <g id="Grupo_68" data-name="Grupo 68" transform="translate(8.325 28.943)">
    <path id="Caminho_108" data-name="Caminho 108" d="M7.048-19.5a1.71,1.71,0,0,1-.662-.134,1.7,1.7,0,0,1-.544-.372,1.734,1.734,0,0,1-.374-.576,1.973,1.973,0,0,1-.132-.721,1.926,1.926,0,0,1,.132-.723,1.739,1.739,0,0,1,.366-.572,1.671,1.671,0,0,1,.553-.374,1.67,1.67,0,0,1,.662-.132,1.334,1.334,0,0,1,.63.137,1.324,1.324,0,0,1,.446.368v-.42H8.87V-19.6H8.124v-.42a1.351,1.351,0,0,1-.443.364A1.376,1.376,0,0,1,7.048-19.5Zm.088-2.9a.973.973,0,0,0-.435.088.933.933,0,0,0-.315.235,1.019,1.019,0,0,0-.21.349,1.235,1.235,0,0,0-.071.42,1.253,1.253,0,0,0,.071.42,1.061,1.061,0,0,0,.21.349,1.024,1.024,0,0,0,.322.237,1.072,1.072,0,0,0,.435.086,1.1,1.1,0,0,0,.42-.084,1,1,0,0,0,.536-.578,1.264,1.264,0,0,0,0-.87,1.02,1.02,0,0,0-.21-.349.941.941,0,0,0-.326-.231A1.016,1.016,0,0,0,7.136-22.4Z" transform="translate(-5.335 23.106)"/>
  </g>
  <g id="Grupo_69" data-name="Grupo 69" transform="translate(12.569 28.945)">
    <path id="Caminho_109" data-name="Caminho 109" d="M10.084-21.31a1.836,1.836,0,0,0-.876-.328l-.353-.055a2.059,2.059,0,0,1-.221-.042.78.78,0,0,1-.179-.061.4.4,0,0,1-.122-.1.271.271,0,0,1-.044-.151.34.34,0,0,1,.17-.294.846.846,0,0,1,.477-.113,1.592,1.592,0,0,1,.317.029,2.309,2.309,0,0,1,.294.071,1.753,1.753,0,0,1,.254.095,1.493,1.493,0,0,1,.191.1l.322-.584a2.167,2.167,0,0,0-.63-.267,3,3,0,0,0-.763-.092,2.066,2.066,0,0,0-.588.076,1.356,1.356,0,0,0-.446.21.942.942,0,0,0-.284.345,1.075,1.075,0,0,0-.1.458.846.846,0,0,0,.294.67,1.675,1.675,0,0,0,.868.334l.357.046a1.1,1.1,0,0,1,.45.139.275.275,0,0,1,.143.242.34.34,0,0,1-.2.307,1.227,1.227,0,0,1-.582.111,2.294,2.294,0,0,1-.378-.029,2.58,2.58,0,0,1-.3-.076,1.607,1.607,0,0,1-.246-.111c-.071-.042-.143-.086-.21-.135l-.347.561a2.12,2.12,0,0,0,.391.225,2.972,2.972,0,0,0,.4.135,2.748,2.748,0,0,0,.372.063c.116,0,.21.017.309.017a2.394,2.394,0,0,0,.658-.084,1.494,1.494,0,0,0,.49-.229,1,1,0,0,0,.3-.353.973.973,0,0,0,.105-.454.819.819,0,0,0-.315-.685" transform="translate(-7.354 23.105)"/>
  </g>
  <g id="Grupo_70" data-name="Grupo 70" transform="translate(19.422 28.943)">
    <path id="Caminho_110" data-name="Caminho 110" d="M12.368-19.5a1.958,1.958,0,0,1-.7-.128A1.662,1.662,0,0,1,11.1-20a1.719,1.719,0,0,1-.361-.567,2.036,2.036,0,0,1-.128-.742,2.118,2.118,0,0,1,.124-.733,1.718,1.718,0,0,1,.353-.57,1.526,1.526,0,0,1,.538-.368,1.743,1.743,0,0,1,.691-.13,1.631,1.631,0,0,1,.656.13,1.407,1.407,0,0,1,.511.368,1.7,1.7,0,0,1,.332.567,2.153,2.153,0,0,1,.12.731v.1h0v.177H11.395a1.17,1.17,0,0,0,.135.4.976.976,0,0,0,.231.269.962.962,0,0,0,.3.156,1.247,1.247,0,0,0,.351.044,1.521,1.521,0,0,0,.513-.088,1.7,1.7,0,0,0,.475-.265l.37.532a1.9,1.9,0,0,1-.668.376A2.628,2.628,0,0,1,12.368-19.5Zm-.061-2.94a.991.991,0,0,0-.357.061.793.793,0,0,0-.267.174.979.979,0,0,0-.185.267,1.343,1.343,0,0,0-.1.343h1.778a1.046,1.046,0,0,0-.286-.63A.794.794,0,0,0,12.307-22.442Z" transform="translate(-10.615 23.106)"/>
  </g>
  <g id="Grupo_71" data-name="Grupo 71" transform="translate(29.437 28.943)">
    <path id="Caminho_111" data-name="Caminho 111" d="M17.093-19.5a1.71,1.71,0,0,1-.662-.134,1.7,1.7,0,0,1-.544-.372,1.734,1.734,0,0,1-.374-.576,1.973,1.973,0,0,1-.132-.721,1.926,1.926,0,0,1,.132-.723,1.739,1.739,0,0,1,.366-.572,1.671,1.671,0,0,1,.553-.374,1.67,1.67,0,0,1,.662-.132,1.334,1.334,0,0,1,.63.137,1.324,1.324,0,0,1,.446.368v-.42h.746V-19.6h-.746v-.42a1.351,1.351,0,0,1-.443.364A1.376,1.376,0,0,1,17.093-19.5Zm.088-2.9a.973.973,0,0,0-.435.088.933.933,0,0,0-.315.235,1.02,1.02,0,0,0-.21.349,1.236,1.236,0,0,0-.071.42,1.253,1.253,0,0,0,.071.42,1.061,1.061,0,0,0,.21.349,1.024,1.024,0,0,0,.322.237,1.072,1.072,0,0,0,.435.086,1.1,1.1,0,0,0,.42-.084,1.022,1.022,0,0,0,.326-.231,1.031,1.031,0,0,0,.21-.347,1.288,1.288,0,0,0,0-.87,1.019,1.019,0,0,0-.21-.349.941.941,0,0,0-.326-.231A1.016,1.016,0,0,0,17.181-22.4Z" transform="translate(-15.38 23.106)"/>
  </g>
  <g id="Grupo_72" data-name="Grupo 72" transform="translate(16.171 27.989)">
    <path id="Caminho_112" data-name="Caminho 112" d="M11.4-19.775a1.075,1.075,0,0,1-.355.067.709.709,0,0,1-.21-.034.5.5,0,0,1-.172-.111.518.518,0,0,1-.116-.21.865.865,0,0,1-.044-.292v-1.488h1.2v-.679H10.5V-23.56H9.751v1.038H9.068v.679h.683v1.5a1.379,1.379,0,0,0,.324,1.007,1.226,1.226,0,0,0,.906.326,1.64,1.64,0,0,0,.586-.1,2.118,2.118,0,0,0,.319-.151l-.254-.633a1.751,1.751,0,0,1-.229.107" transform="translate(-9.068 23.56)"/>
  </g>
  <g id="Grupo_73" data-name="Grupo 73" transform="translate(23.584 28.935)">
    <path id="Caminho_113" data-name="Caminho 113" d="M14.262-23.1a1.32,1.32,0,0,0-.567.116,1.185,1.185,0,0,0-.42.42v-.45H12.6v3.426h.685v-1.891a1.213,1.213,0,0,1,.061-.389.889.889,0,0,1,.168-.29.714.714,0,0,1,.261-.179A.84.84,0,0,1,14.1-22.4a1.352,1.352,0,0,1,.292.032,1.142,1.142,0,0,1,.151.042l.212-.715a1.457,1.457,0,0,0-.183-.046,1.723,1.723,0,0,0-.311-.023" transform="translate(-12.595 23.11)"/>
  </g>
  <g id="Grupo_74" data-name="Grupo 74" transform="translate(33.972 28.935)">
    <path id="Caminho_114" data-name="Caminho 114" d="M19.207-23.1a1.336,1.336,0,0,0-.57.116,1.185,1.185,0,0,0-.42.42v-.45h-.679v3.426h.685v-1.891a1.158,1.158,0,0,1,.061-.389.889.889,0,0,1,.168-.29.682.682,0,0,1,.259-.179.841.841,0,0,1,.328-.061,1.352,1.352,0,0,1,.292.032,1.142,1.142,0,0,1,.151.042l.21-.715a1.293,1.293,0,0,0-.183-.046,1.663,1.663,0,0,0-.307-.023" transform="translate(-17.538 23.11)"/>
  </g>
  <g id="Grupo_75" data-name="Grupo 75" transform="translate(36.342 27.638)">
    <path id="Caminho_115" data-name="Caminho 115" d="M20.379-18.82a1.71,1.71,0,0,1-.662-.135,1.7,1.7,0,0,1-.544-.374,1.774,1.774,0,0,1-.366-.57,1.993,1.993,0,0,1-.141-.723,1.937,1.937,0,0,1,.132-.725,1.705,1.705,0,0,1,.366-.572,1.614,1.614,0,0,1,.553-.372,1.636,1.636,0,0,1,.662-.135,1.336,1.336,0,0,1,.63.139,1.294,1.294,0,0,1,.446.366v-1.807H22.2v4.819h-.746v-.406a1.357,1.357,0,0,1-.443.366A1.422,1.422,0,0,1,20.379-18.82Zm.088-2.9a1.008,1.008,0,0,0-.435.095.921.921,0,0,0-.315.231,1.019,1.019,0,0,0-.21.349,1.235,1.235,0,0,0-.071.42,1.253,1.253,0,0,0,.071.42,1.061,1.061,0,0,0,.21.349,1.017,1.017,0,0,0,.322.235,1.081,1.081,0,0,0,.429.1,1.1,1.1,0,0,0,.42-.082,1.023,1.023,0,0,0,.326-.231,1.031,1.031,0,0,0,.21-.347,1.27,1.27,0,0,0,0-.872.991.991,0,0,0-.21-.347.941.941,0,0,0-.326-.231A1,1,0,0,0,20.467-21.72Z" transform="translate(-18.666 23.727)"/>
  </g>
  <g id="Grupo_76" data-name="Grupo 76" transform="translate(25.954 28.937)">
    <path id="Caminho_116" data-name="Caminho 116" d="M14.807-22.094a.984.984,0,0,1,.338-.225,1.075,1.075,0,0,1,.42-.08,1.305,1.305,0,0,1,.467.08,1.1,1.1,0,0,1,.361.21l.361-.6a1.826,1.826,0,0,0-.456-.263,2.041,2.041,0,0,0-1.471,0,1.725,1.725,0,0,0-.582.38,1.759,1.759,0,0,0-.385.57,1.915,1.915,0,0,0,0,1.431,1.738,1.738,0,0,0,.385.57,1.79,1.79,0,0,0,.582.38,2.041,2.041,0,0,0,1.471,0,1.761,1.761,0,0,0,.456-.265l-.361-.6a1.174,1.174,0,0,1-.361.21,1.351,1.351,0,0,1-.467.078,1.113,1.113,0,0,1-.42-.078,1.02,1.02,0,0,1-.338-.227,1.093,1.093,0,0,1-.225-.349,1.246,1.246,0,0,1,0-.889,1.093,1.093,0,0,1,.225-.349" transform="translate(-13.723 23.109)"/>
  </g>
  <g id="Grupo_77" data-name="Grupo 77" transform="translate(41.092 31.954)">
    <path id="Caminho_117" data-name="Caminho 117" d="M21.287-20.973A.418.418,0,0,1,21.136-21a.35.35,0,0,1-.105-.078.359.359,0,0,1-.078-.109.345.345,0,0,1-.027-.137.341.341,0,0,1,.027-.139.335.335,0,0,1,.078-.107.335.335,0,0,1,.105-.076.318.318,0,0,1,.151-.027.315.315,0,0,1,.139.027.325.325,0,0,1,.116.076.382.382,0,0,1,.076.107.309.309,0,0,1,.027.139.345.345,0,0,1-.027.137.425.425,0,0,1-.076.109A.367.367,0,0,1,21.287-20.973Zm0-.6a.241.241,0,0,0-.1.021.2.2,0,0,0-.08.055.216.216,0,0,0-.055.08.248.248,0,0,0-.019.1.286.286,0,0,0,.019.1.249.249,0,0,0,.055.078.253.253,0,0,0,.277.055.279.279,0,0,0,.082-.055.225.225,0,0,0,.05-.078.248.248,0,0,0,.021-.1.216.216,0,0,0-.021-.1.186.186,0,0,0-.05-.08A.248.248,0,0,0,21.287-21.576Zm-.048.408h-.086v-.311h.153a.129.129,0,0,1,.1.029.093.093,0,0,1,.032.076.089.089,0,0,1-.025.063.119.119,0,0,1-.065.032l.095.111h-.095l-.1-.107h0v.107Zm0-.233v.057h.067a.08.08,0,0,0,.04-.008V-21.4a.041.041,0,0,0-.032,0Z" transform="translate(-20.926 21.673)"/>
  </g>
  <g id="Grupo_78" data-name="Grupo 78" transform="translate(0.104 0.099)">
    <path id="Caminho_118" data-name="Caminho 118" d="M17.442-23.919a12.886,12.886,0,0,1,4.9-10.124A12.909,12.909,0,0,0,4.21-31.932,12.912,12.912,0,0,0,6.322-13.8a12.909,12.909,0,0,0,16.023,0,12.892,12.892,0,0,1-4.9-10.124" transform="translate(-1.423 36.831)"/>
  </g>
  <g id="Grupo_79" data-name="Grupo 79" transform="translate(40.918 19.52)">
    <path id="Caminho_119" data-name="Caminho 119" d="M21.473-27.109h-.118v-.481h.16l.12.309.12-.309h.164v.481H21.8v-.334l-.107.288h-.12l-.1-.288Zm-.359,0H21v-.378h-.153v-.1h.42v.1h-.156v.378Z" transform="translate(-20.843 27.59)" fill="#fff"/>
  </g>
  <g id="Grupo_80" data-name="Grupo 80" transform="translate(21.026 0.105)">
    <path id="Caminho_120" data-name="Caminho 120" d="M19.385-36.826a12.843,12.843,0,0,0-8.007,2.787A12.9,12.9,0,0,1,13.5-15.911a12.867,12.867,0,0,1-2.118,2.118,12.912,12.912,0,0,0,18.135-2.118A12.907,12.907,0,0,0,27.4-34.043a12.89,12.89,0,0,0-8.011-2.785" transform="translate(-11.378 36.828)"/>
  </g>
  <g id="Grupo_82" data-name="Grupo 82" transform="translate(15.958 0)">
    <path id="Caminho_1531" data-name="Caminho 1531" d="M12.925,0A12.91,12.91,0,1,1,0,12.91,12.917,12.917,0,0,1,12.925,0Z" transform="translate(0.105 0.105)"/>
    <path id="Caminho_121" data-name="Caminho 121" d="M22-10.849A13.036,13.036,0,0,1,8.966-23.863,13.037,13.037,0,0,1,22-36.878a13.037,13.037,0,0,1,13.03,13.015A13.036,13.036,0,0,1,22-10.849Zm0-25.818A12.827,12.827,0,0,0,9.176-23.863,12.827,12.827,0,0,0,22-11.06a12.827,12.827,0,0,0,12.822-12.8A12.828,12.828,0,0,0,22-36.668Z" transform="translate(-8.966 36.878)" fill="#fff"/>
  </g>
  <g id="Grupo_83" data-name="Grupo 83" transform="translate(0 0)">
    <path id="Caminho_122" data-name="Caminho 122" d="M14.4-10.849A13.036,13.036,0,0,1,1.373-23.863,13.037,13.037,0,0,1,14.4-36.878a13.038,13.038,0,0,1,13.03,13.015A13.038,13.038,0,0,1,14.4-10.849Zm0-25.818A12.827,12.827,0,0,0,1.583-23.863,12.827,12.827,0,0,0,14.4-11.06a12.827,12.827,0,0,0,12.82-12.8A12.827,12.827,0,0,0,14.4-36.668Z" transform="translate(-1.373 36.878)" fill="#fff"/>
  </g>
</svg>
