<svg xmlns="http://www.w3.org/2000/svg" width="18.788" height="23.531" viewBox="0 0 18.788 23.531">
  <path id="user023_-_E183" data-name="user023 - E183" d="M-1.7-24.008a5.881,5.881,0,0,1-4.185-1.73,5.881,5.881,0,0,1-1.73-4.185,5.881,5.881,0,0,1,1.73-4.185A5.881,5.881,0,0,1-1.7-35.838a5.881,5.881,0,0,1,4.185,1.73,5.881,5.881,0,0,1,1.73,4.185,5.881,5.881,0,0,1-1.73,4.185A5.881,5.881,0,0,1-1.7-24.008Zm0-10.863A4.926,4.926,0,0,0-5.2-33.42a4.926,4.926,0,0,0-1.451,3.5,4.926,4.926,0,0,0,1.451,3.5,4.926,4.926,0,0,0,3.5,1.451,4.926,4.926,0,0,0,3.5-1.451,4.926,4.926,0,0,0,1.451-3.5,4.926,4.926,0,0,0-1.451-3.5A4.926,4.926,0,0,0-1.7-34.871ZM7.616-12.457H6.649V-15.6a5.44,5.44,0,0,0-1.581-3.813,5.373,5.373,0,0,0-3.832-1.581H-4.642a5.373,5.373,0,0,0-3.832,1.581A5.362,5.362,0,0,0-10.055-15.6v3.144h-.967V-15.6a6.259,6.259,0,0,1,.5-2.474A6.265,6.265,0,0,1-9.162-20.1a6.471,6.471,0,0,1,2.028-1.358,6.282,6.282,0,0,1,2.493-.5H1.236a6.416,6.416,0,0,1,2.493.5A6.39,6.39,0,0,1,5.737-20.1a6.033,6.033,0,0,1,1.376,2.028,6.259,6.259,0,0,1,.5,2.474Z" transform="translate(11.097 35.913)" stroke="#000" stroke-width="0.15"/>
</svg>
