<svg xmlns="http://www.w3.org/2000/svg" width="83.564" height="30.394" viewBox="0 0 83.564 30.394">
  <g id="Grupo_831" data-name="Grupo 831" transform="translate(-1107.436 -4571)">
    <path id="Caminho_1546" data-name="Caminho 1546" d="M227.135,186.14H200.589a2.73,2.73,0,0,0-2.413,4.007l2.655,5.028h-4.814a1.77,1.77,0,0,0-1.566,2.6l8.541,16.165a1.77,1.77,0,0,0,3.129,0l2.32-4.367,2.91,5.509a2.731,2.731,0,0,0,4.827.006l13.306-25.039A2.659,2.659,0,0,0,227.135,186.14Zm-11.924,10.7-5.737,10.8a1.178,1.178,0,0,1-2.082,0l-5.682-10.753a1.178,1.178,0,0,1,1.038-1.73H214.2a1.146,1.146,0,0,1,1.012,1.684Z" transform="translate(913.188 4384.86)"/>
    <path id="Caminho_1547" data-name="Caminho 1547" d="M936.41,318.235h-2.9v9.952a.343.343,0,0,1-.342.342h-2.239a.343.343,0,0,1-.342-.342v-9.952h-2.921a.329.329,0,0,1-.342-.325v-1.76a.329.329,0,0,1,.342-.325h8.747a.344.344,0,0,1,.359.325v1.761A.344.344,0,0,1,936.41,318.235Z" transform="translate(232.148 4264.38)"/>
    <path id="Caminho_1548" data-name="Caminho 1548" d="M1087.185,326.41a22.435,22.435,0,0,1-3.451.222c-2.205,0-4.154-.564-4.154-3.675v-5.678c0-3.111,1.966-3.658,4.171-3.658a22.141,22.141,0,0,1,3.434.222c.239.034.342.12.342.342v1.592a.343.343,0,0,1-.342.342h-3.6c-.8,0-1.094.273-1.094,1.163v1.556h4.562a.343.343,0,0,1,.342.342V320.8a.343.343,0,0,1-.342.342h-4.562v1.812c0,.889.29,1.163,1.094,1.163h3.6a.343.343,0,0,1,.342.342v1.59C1087.527,326.273,1087.424,326.376,1087.185,326.41Z" transform="translate(90.696 4266.428)"/>
    <path id="Caminho_1549" data-name="Caminho 1549" d="M1225.714,328.509H1223a.454.454,0,0,1-.444-.256l-2.356-3.741-2.135,3.659c-.12.205-.239.342-.426.342h-2.53a.226.226,0,0,1-.256-.222.317.317,0,0,1,.034-.12l3.7-6.175-3.741-5.864a.242.242,0,0,1-.034-.1.246.246,0,0,1,.256-.222h2.752c.188,0,.325.171.426.325l2.187,3.453,2.117-3.453a.555.555,0,0,1,.426-.325h2.53a.213.213,0,0,1,.222.325l-3.723,5.9,3.883,6.139a.379.379,0,0,1,.051.171C1225.936,328.441,1225.851,328.509,1225.714,328.509Z" transform="translate(-34.936 4264.397)"/>
    <path id="Caminho_1550" data-name="Caminho 1550" d="M756.161,316.282a.264.264,0,0,0-.258.213l-2.481,9.184c-.034.188-.085.256-.239.256s-.205-.071-.239-.256l-2.484-9.186a.264.264,0,0,0-.258-.213h-2.442a.264.264,0,0,0-.257.324s3.031,10.533,3.064,10.636a2.572,2.572,0,0,0,2.635,1.855,2.653,2.653,0,0,0,2.634-1.851c.048-.142,3.012-10.64,3.012-10.64a.264.264,0,0,0-.257-.323Z" transform="translate(399.211 4263.957)"/>
    <path id="Caminho_1551" data-name="Caminho 1551" d="M227.135,186.14H200.589a2.73,2.73,0,0,0-2.413,4.007l2.655,5.028h-4.814a1.77,1.77,0,0,0-1.566,2.6l8.541,16.165a1.77,1.77,0,0,0,3.129,0l2.32-4.367,2.91,5.509a2.731,2.731,0,0,0,4.827.006l13.306-25.039A2.659,2.659,0,0,0,227.135,186.14Zm-11.924,10.7-5.737,10.8a1.178,1.178,0,0,1-2.082,0l-5.682-10.753a1.178,1.178,0,0,1,1.038-1.73H214.2a1.146,1.146,0,0,1,1.012,1.684Z" transform="translate(913.188 4384.86)"/>
  </g>
</svg>
