<svg id="Grupo_62" data-name="Grupo 62" xmlns="http://www.w3.org/2000/svg" xmlns:xlink="http://www.w3.org/1999/xlink" width="46.58" height="15.044" viewBox="0 0 46.58 15.044">
  <defs>
    <clipPath id="clip-path">
      <path id="Caminho_36" data-name="Caminho 36" d="M26.72,15.043a13.36,13.36,0,0,1-2.395-.242,8.246,8.246,0,0,1-1.785-.533l.687-3.187.08.037A7.753,7.753,0,0,0,26.941,12h.154a3.985,3.985,0,0,0,.806-.092,2.743,2.743,0,0,0,.721-.26,1.513,1.513,0,0,0,.519-.439,1.091,1.091,0,0,0,.2-.633c.008-.636-.485-1.1-1.95-1.81a8.4,8.4,0,0,1-2.2-1.455,4.426,4.426,0,0,1-.448-.514,3.56,3.56,0,0,1-.353-.585,3.144,3.144,0,0,1-.228-.662,3.256,3.256,0,0,1-.087-.747,4.209,4.209,0,0,1,.481-1.946,4.564,4.564,0,0,1,1.314-1.517,6.287,6.287,0,0,1,2.007-.99A8.97,8.97,0,0,1,30.445,0a9.621,9.621,0,0,1,1.034.055c.309.033.622.082.93.146a11.374,11.374,0,0,1,1.557.445l-.659,3.084a7.54,7.54,0,0,0-1.726-.556,7.052,7.052,0,0,0-1.348-.137,4.985,4.985,0,0,0-.64.037,2.939,2.939,0,0,0-.707.18,1.813,1.813,0,0,0-.5.29A1.185,1.185,0,0,0,28.1,3.9a.905.905,0,0,0-.1.391,1.123,1.123,0,0,0,.541.894,9.282,9.282,0,0,0,1.318.779,9.931,9.931,0,0,1,2.286,1.488,3.429,3.429,0,0,1,1.133,2.609,4.6,4.6,0,0,1-.474,2.06A4.505,4.505,0,0,1,31.473,13.7a6.271,6.271,0,0,1-2.06,1A9.751,9.751,0,0,1,26.72,15.043Zm19.86-.227H43.095l-.454-2.172H37.813l-.787,2.172H33.074L38.72,1.336A1.709,1.709,0,0,1,40.325.266h3.21L46.58,14.821ZM40.879,4.2,38.9,9.66h3.118ZM19.948,14.817H16.183L19.3.262h3.768L19.955,14.817Zm-8.363,0H7.607L4.605,3.2a2.473,2.473,0,0,0-.308-.8,1.53,1.53,0,0,0-.59-.487,10.422,10.422,0,0,0-1.7-.687C1.381,1.027.687.84,0,.687L.088.266h6.4a1.794,1.794,0,0,1,.589.1,1.7,1.7,0,0,1,.515.29,1.856,1.856,0,0,1,.63,1.1l1.587,8.414,3.919-9.9h3.953l-6.1,14.555Z" transform="translate(0 0)"/>
    </clipPath>
  </defs>
  <g id="Grupo_61" data-name="Grupo 61" transform="translate(0 0)" clip-path="url(#clip-path)">
    <g id="Grupo_60" data-name="Grupo 60" transform="translate(-0.01 -0.149)">
      <rect id="Retângulo_97" data-name="Retângulo 97" width="46.696" height="15.201"/>
    </g>
  </g>
</svg>
